<svg id="Calque_1" data-name="Calque 1" xmlns="http://www.w3.org/2000/svg" viewBox="0 0 77.28 17.61"><defs><style>.cls-1{fill:none;}.cls-2{fill:#1d1d1b;}</style></defs><rect class="cls-1" width="77.28" height="17.61"/><path class="cls-2" d="M7,11.13l-.09.45a5.89,5.89,0,0,1-3.18,1.3,1.73,1.73,0,0,1-1.35-.58,2.21,2.21,0,0,1-.52-1.51A4.65,4.65,0,0,1,3.16,7.68a3.58,3.58,0,0,1,2.7-1.45,1.09,1.09,0,0,1,.84.35A1.27,1.27,0,0,1,7,7.49,2.33,2.33,0,0,1,5.88,9.42a4.65,4.65,0,0,1-2.75.81v.27c0,1.14.42,1.71,1.25,1.71A5,5,0,0,0,7,11.13ZM3.15,9.87A3.83,3.83,0,0,0,5.2,9.2a1.8,1.8,0,0,0,.74-1.48q0-.9-.66-.9a1.75,1.75,0,0,0-1.35.94A4.36,4.36,0,0,0,3.15,9.87Z"/><path class="cls-2" d="M9.88,6.8H8.54l.4-.43h1l.33-1.66,1.22-.29-.39,2h2.21l-.48.52a11.42,11.42,0,0,0-1.34-.09H11l-.79,4a4.61,4.61,0,0,0-.13.87c0,.31.14.46.41.46a3.12,3.12,0,0,0,1.73-.93l-.1.54A3.23,3.23,0,0,1,10,12.88c-.66,0-1-.37-1-1.1a6.19,6.19,0,0,1,.13-1Z"/><path class="cls-2" d="M22.43,9.55h-.11a7.91,7.91,0,0,1-1.6,2.4,2.56,2.56,0,0,1-1.73.93c-.83,0-1.24-.52-1.24-1.55a4.78,4.78,0,0,1,.6-2.21,6.24,6.24,0,0,1,1.57-1.94,3.58,3.58,0,0,1,1.29-.7,7.36,7.36,0,0,1,1.87-.18,7.8,7.8,0,0,1,.72-1.77,4.35,4.35,0,0,1,1.06-1.15,4,4,0,0,1,2.56-.91,4.32,4.32,0,0,1,1,.12l-.8.83a3.13,3.13,0,0,0-1.19-.3,1.62,1.62,0,0,0-1.41.68,7.66,7.66,0,0,0-.85,2.56L23.3,11a6.28,6.28,0,0,0-.14.87c0,.25.12.38.35.38.39,0,1-.43,1.75-1.29l-.11.54a3.46,3.46,0,0,1-2.3,1.38c-.57,0-.85-.29-.85-.88a6.3,6.3,0,0,1,.14-1Zm.47-2.34a3.53,3.53,0,0,0-1.47-.33c-.7,0-1.27.45-1.7,1.35A6.84,6.84,0,0,0,19,11.09c0,.62.18.92.54.92S20.34,11.66,21,11a11.49,11.49,0,0,0,1.66-2.42Z"/><path class="cls-2" d="M27.17,3.17l.92-.7.71.92C28.69,4.9,28,5.65,26.68,5.65l.24-.36a1.21,1.21,0,0,0,1-1.23Z"/><path class="cls-2" d="M33.48,9.55h-.11A8,8,0,0,1,31.78,12a2.6,2.6,0,0,1-1.75.93c-.82,0-1.23-.52-1.23-1.55A5.19,5.19,0,0,1,30.16,8,4.3,4.3,0,0,1,33.59,6.3c.56,0,1.14,0,1.75.07L34.92,8.1,34.35,11a5.77,5.77,0,0,0-.13.88c0,.24.11.37.34.37.39,0,1-.43,1.75-1.29l-.11.54a3.46,3.46,0,0,1-2.3,1.38c-.57,0-.85-.29-.85-.88a5.29,5.29,0,0,1,.14-1ZM34,7.21a3.55,3.55,0,0,0-1.46-.33q-1.07,0-1.71,1.35A6.84,6.84,0,0,0,30,11.09c0,.62.18.92.54.92s.82-.35,1.45-1a12,12,0,0,0,1.66-2.42Z"/><path class="cls-2" d="M40.93,11l-.11.54a3.46,3.46,0,0,1-2.3,1.38c-.56,0-.84-.29-.84-.88a5.77,5.77,0,0,1,.13-1l.4-2a8.13,8.13,0,0,0,.17-1.15c0-.33-.13-.49-.38-.49a4.09,4.09,0,0,0-1,.19l.07-.35L40,6.23,39.54,8.1,39,11a5.7,5.7,0,0,0-.13.87c0,.25.11.38.34.38C39.57,12.25,40.15,11.82,40.93,11ZM38.78,5.21l.39-.8,1.65-1.07-.5,1.07Z"/><path class="cls-2" d="M45,10.93l-.11.54a3.75,3.75,0,0,1-2.38,1.41c-.55,0-.83-.3-.83-.9a5.64,5.64,0,0,1,.12-1l.8-4a6.41,6.41,0,0,1,1.6-3.3A3.84,3.84,0,0,1,47,2.47a4.24,4.24,0,0,1,1.06.12l-.8.84a2.91,2.91,0,0,0-1.18-.31,1.59,1.59,0,0,0-1.4.68,7.61,7.61,0,0,0-.84,2.57L42.93,11a6.12,6.12,0,0,0-.14.88.32.32,0,0,0,.35.37c.26,0,.77-.35,1.52-1.05Z"/><path class="cls-2" d="M49,10.93l-.11.54a3.75,3.75,0,0,1-2.38,1.41c-.55,0-.83-.3-.83-.9a5.64,5.64,0,0,1,.12-1l.81-4a6.32,6.32,0,0,1,1.59-3.3,3.85,3.85,0,0,1,2.85-1.18,4.21,4.21,0,0,1,1,.12l-.8.84a2.87,2.87,0,0,0-1.17-.31,1.61,1.61,0,0,0-1.41.68,7.61,7.61,0,0,0-.84,2.57L47,11a6.12,6.12,0,0,0-.14.88.32.32,0,0,0,.35.37c.26,0,.77-.35,1.52-1.05Z"/><path class="cls-2" d="M54.71,11.13l-.09.45a5.89,5.89,0,0,1-3.17,1.3,1.73,1.73,0,0,1-1.36-.58,2.21,2.21,0,0,1-.51-1.51,4.68,4.68,0,0,1,1.26-3.11,3.61,3.61,0,0,1,2.7-1.45,1.12,1.12,0,0,1,.85.35,1.31,1.31,0,0,1,.32.91,2.31,2.31,0,0,1-1.15,1.93,4.64,4.64,0,0,1-2.74.81v.27q0,1.71,1.26,1.71A5,5,0,0,0,54.71,11.13ZM50.83,9.87a3.8,3.8,0,0,0,2.05-.67,1.8,1.8,0,0,0,.74-1.48c0-.6-.22-.9-.65-.9a1.77,1.77,0,0,0-1.36.94A4.36,4.36,0,0,0,50.83,9.87Z"/><path class="cls-2" d="M61.09,9.55H61q-1.66,3.33-3.24,3.33c-.63,0-.94-.37-.94-1.11a3.76,3.76,0,0,1,.1-.79l.56-2.88a6.06,6.06,0,0,0,.14-.87c0-.25-.12-.37-.35-.37s-1,.43-1.74,1.29l.1-.54a3.47,3.47,0,0,1,2.31-1.38c.57,0,.85.29.85.88a6.22,6.22,0,0,1-.14,1L58.06,11a3.53,3.53,0,0,0-.08.55c0,.31.12.47.35.47s.74-.35,1.33-1.06A13.68,13.68,0,0,0,61.3,8.47l.43-2.1L63,6.3l-.43,1.8L62,11a5.6,5.6,0,0,0-.13.88c0,.24.11.37.34.37.39,0,1-.43,1.75-1.29l-.11.54a3.46,3.46,0,0,1-2.3,1.38c-.57,0-.85-.29-.85-.88a5.19,5.19,0,0,1,.14-1Z"/><path class="cls-2" d="M64.92,12.8l.43-1.8.57-2.86A3.78,3.78,0,0,0,66,7.39c0-.34-.12-.5-.36-.5q-.62,0-1.77,1.32l.1-.52a3.68,3.68,0,0,1,2.35-1.46c.57,0,.85.32.85,1a4.77,4.77,0,0,1-.11.94l-.28,1.42h.08a8.07,8.07,0,0,1,1.65-2.4,2.64,2.64,0,0,1,1.74-.93,1.46,1.46,0,0,1,.73.18l-.78,1.06a1.14,1.14,0,0,0-.58-.23c-.76,0-1.78,1.12-3,3.36l-.43,2.13Z"/><path class="cls-2" d="M70.42,12.53l.78-.79a2.59,2.59,0,0,0,1.55.56,1.33,1.33,0,0,0,.82-.25.77.77,0,0,0,.33-.63,2,2,0,0,0-.66-1.14l-.54-.59a2.38,2.38,0,0,1-.78-1.43,1.81,1.81,0,0,1,.76-1.41,2.66,2.66,0,0,1,1.73-.62,3.73,3.73,0,0,1,1.19.22l-.25,1.3H75l0-.1a.53.53,0,0,0,0-.13c0-.52-.34-.79-1-.79s-1.14.31-1.14.92a2.18,2.18,0,0,0,.68,1.23l.48.53a2.49,2.49,0,0,1,.79,1.45,1.74,1.74,0,0,1-.83,1.4,3.07,3.07,0,0,1-1.9.62A4.66,4.66,0,0,1,70.42,12.53Z"/></svg>