<svg id="Calque_1" data-name="Calque 1" xmlns="http://www.w3.org/2000/svg" viewBox="0 0 69.64 17.61"><defs><style>.cls-1{fill:#1d1d1b;}.cls-2{fill:none;}</style></defs><path class="cls-1" d="M7.13,9.55H7A7.9,7.9,0,0,1,5.43,12a2.6,2.6,0,0,1-1.74.93c-.83,0-1.24-.52-1.24-1.55a4.68,4.68,0,0,1,.61-2.21A6.07,6.07,0,0,1,4.62,7.18a3.58,3.58,0,0,1,1.29-.7A7.36,7.36,0,0,1,7.78,6.3,7.8,7.8,0,0,1,8.5,4.53,4.35,4.35,0,0,1,9.56,3.38a4,4,0,0,1,2.56-.91,4.27,4.27,0,0,1,1.05.12l-.8.83a3.13,3.13,0,0,0-1.18-.3,1.63,1.63,0,0,0-1.42.68,7.66,7.66,0,0,0-.85,2.56L8,11a6.28,6.28,0,0,0-.14.87c0,.25.12.38.35.38.39,0,1-.43,1.75-1.29l-.11.54a3.46,3.46,0,0,1-2.3,1.38A.77.77,0,0,1,6.7,12a6.3,6.3,0,0,1,.14-1ZM7.6,7.21a3.53,3.53,0,0,0-1.47-.33c-.7,0-1.27.45-1.69,1.35a6.72,6.72,0,0,0-.76,2.86c0,.62.18.92.54.92S5,11.66,5.67,11A11.52,11.52,0,0,0,7.34,8.53Z"/><path class="cls-1" d="M15.69,11.13l-.09.45a5.89,5.89,0,0,1-3.17,1.3,1.7,1.7,0,0,1-1.35-.58,2.17,2.17,0,0,1-.52-1.51,4.68,4.68,0,0,1,1.26-3.11,3.61,3.61,0,0,1,2.7-1.45,1.12,1.12,0,0,1,.85.35,1.31,1.31,0,0,1,.32.91,2.31,2.31,0,0,1-1.15,1.93,4.62,4.62,0,0,1-2.74.81v.27q0,1.71,1.26,1.71A5,5,0,0,0,15.69,11.13ZM11.81,9.87a3.77,3.77,0,0,0,2-.67,1.77,1.77,0,0,0,.74-1.48c0-.6-.22-.9-.65-.9a1.77,1.77,0,0,0-1.36.94A4.36,4.36,0,0,0,11.81,9.87Z"/><path class="cls-1" d="M24.58,10.93l-.11.54a3.77,3.77,0,0,1-2.38,1.41c-.56,0-.83-.3-.83-.9a5.64,5.64,0,0,1,.12-1l.8-4a6.41,6.41,0,0,1,1.6-3.3,3.84,3.84,0,0,1,2.84-1.18,4.29,4.29,0,0,1,1.06.12l-.8.84a2.91,2.91,0,0,0-1.18-.31,1.59,1.59,0,0,0-1.4.68,7.61,7.61,0,0,0-.84,2.57L22.53,11a5.6,5.6,0,0,0-.13.88.32.32,0,0,0,.35.37c.26,0,.76-.35,1.52-1.05Z"/><path class="cls-1" d="M26.43,3.17l.92-.7.71.92c-.12,1.51-.83,2.26-2.13,2.26l.25-.36a1.22,1.22,0,0,0,1-1.23Z"/><path class="cls-1" d="M29.33,14.66l.8-.77a2.11,2.11,0,0,0,1.66.83c1,0,1.72-1,2.2-2.87l.49-2c-1,1.69-1.9,2.54-2.57,2.54s-.84-.58-.93-1.72l-.35-4.37c-.09-1.17-.35-1.76-.77-1.76a2.16,2.16,0,0,0-1.22.7l.09-.48a2.61,2.61,0,0,1,1.63-.94,1.14,1.14,0,0,1,1.07.71,6.63,6.63,0,0,1,.49,2.36l.24,3.22c.06.77.21,1.16.46,1.16s.5-.23.91-.68A10.28,10.28,0,0,0,34.71,9L36,4.06l1.36-.12-.54,1.85-1.14,4.6c-.8,3.2-2.26,4.8-4.4,4.8A3.71,3.71,0,0,1,29.33,14.66Z"/><path class="cls-1" d="M39.76,12.88a1.62,1.62,0,0,1-1.28-.6,2.24,2.24,0,0,1-.51-1.5,4.58,4.58,0,0,1,1.28-3.12A3.71,3.71,0,0,1,42,6.23a1.73,1.73,0,0,1,1.34.59,2.14,2.14,0,0,1,.53,1.49,4.59,4.59,0,0,1-1.28,3.16A3.79,3.79,0,0,1,39.76,12.88Zm.67-.51A1.85,1.85,0,0,0,42,11.25a5,5,0,0,0,.65-2.59c0-1.29-.39-1.94-1.18-1.94-.56,0-1.06.39-1.51,1.15a5.16,5.16,0,0,0-.67,2.6C39.25,11.74,39.64,12.37,40.43,12.37Z"/><path class="cls-1" d="M45.36,12.8l.43-1.8.57-2.9a6.06,6.06,0,0,0,.14-.87c0-.25-.12-.37-.35-.37s-1,.43-1.74,1.29l.1-.54a3.45,3.45,0,0,1,2.31-1.38c.56,0,.84.29.84.88a6.07,6.07,0,0,1-.14,1l-.28,1.45h.09A8.71,8.71,0,0,1,49,7.14a2.59,2.59,0,0,1,1.72-.91c.64,0,1,.36,1,1.07a4.11,4.11,0,0,1-.1.84L51,11a5.77,5.77,0,0,0-.13.88c0,.24.11.37.34.37.4,0,1-.43,1.76-1.29l-.11.54a3.47,3.47,0,0,1-2.31,1.38c-.56,0-.84-.29-.84-.88a6.3,6.3,0,0,1,.14-1l.57-2.87a3.4,3.4,0,0,0,.07-.56c0-.31-.12-.47-.35-.47-.75,0-1.78,1.18-3.11,3.54l-.43,2.09Z"/><path class="cls-1" d="M53.89,12.8l.43-1.8.58-2.9A5.54,5.54,0,0,0,55,7.23c0-.25-.11-.37-.34-.37-.39,0-1,.43-1.75,1.29l.1-.54a3.47,3.47,0,0,1,2.31-1.38c.56,0,.84.29.84.88a5.77,5.77,0,0,1-.13,1l-.29,1.45h.09a8.93,8.93,0,0,1,1.65-2.41,2.59,2.59,0,0,1,1.72-.91c.64,0,1,.36,1,1.07a4.11,4.11,0,0,1-.1.84L59.52,11a7.53,7.53,0,0,0-.13.88.32.32,0,0,0,.35.37c.39,0,1-.43,1.75-1.29l-.11.54a3.47,3.47,0,0,1-2.31,1.38c-.56,0-.84-.29-.84-.88a6.3,6.3,0,0,1,.14-1l.57-2.87A2.58,2.58,0,0,0,59,7.57c0-.31-.12-.47-.35-.47-.75,0-1.78,1.18-3.11,3.54l-.43,2.09Z"/><path class="cls-1" d="M67.15,11.13l-.08.45a5.92,5.92,0,0,1-3.18,1.3,1.73,1.73,0,0,1-1.35-.58A2.17,2.17,0,0,1,62,10.79a4.65,4.65,0,0,1,1.27-3.11A3.58,3.58,0,0,1,66,6.23a1.09,1.09,0,0,1,.84.35,1.27,1.27,0,0,1,.32.91A2.32,2.32,0,0,1,66,9.42a4.65,4.65,0,0,1-2.75.81v.27c0,1.14.42,1.71,1.25,1.71A5,5,0,0,0,67.15,11.13ZM63.27,9.87a3.84,3.84,0,0,0,2.06-.67,1.79,1.79,0,0,0,.73-1.48c0-.6-.21-.9-.65-.9a1.77,1.77,0,0,0-1.36.94A4.58,4.58,0,0,0,63.27,9.87Z"/><rect class="cls-2" width="69.64" height="17.61"/></svg>