<svg id="Calque_1" data-name="Calque 1" xmlns="http://www.w3.org/2000/svg" viewBox="0 0 106.16 17.61"><defs><style>.cls-1{fill:none;}.cls-2{fill:#fff;}</style></defs><rect class="cls-1" width="106.16" height="17.61"/><path class="cls-2" d="M5.83,8.72l.42-.47h.62l.74-3.73a2.84,2.84,0,0,0-1.95.65,2.12,2.12,0,0,0-.75,1.69V7l-1.15.55A3.35,3.35,0,0,1,5.17,4.9a6.77,6.77,0,0,1,3.76-.84h3.38l-.53,1.66h-.37a1.51,1.51,0,0,0,.07-.46c0-.51-.79-.76-2.39-.76H8.84L8.09,8.25h2.56l-.58.6a12.54,12.54,0,0,0-1.78-.13H8l-.34,1.72A6.85,6.85,0,0,1,6,13.9a3.81,3.81,0,0,1-2.85,1.29,2.2,2.2,0,0,1-1.57-.66l.86-.88a1.55,1.55,0,0,0,1.49,1,1.67,1.67,0,0,0,1.47-.84,9.49,9.49,0,0,0,1-3l.41-2Z"/><path class="cls-2" d="M15.48,10.93l-.11.54A3.75,3.75,0,0,1,13,12.88c-.55,0-.83-.3-.83-.9a5.64,5.64,0,0,1,.12-1l.81-4a6.32,6.32,0,0,1,1.59-3.3,3.84,3.84,0,0,1,2.84-1.18,4.24,4.24,0,0,1,1.06.12l-.8.84a2.91,2.91,0,0,0-1.18-.31,1.59,1.59,0,0,0-1.4.68,7.61,7.61,0,0,0-.84,2.57L13.44,11a6.12,6.12,0,0,0-.14.88.32.32,0,0,0,.35.37c.26,0,.77-.35,1.52-1.05Z"/><path class="cls-2" d="M21.15,11.13l-.09.45a5.89,5.89,0,0,1-3.18,1.3,1.73,1.73,0,0,1-1.35-.58A2.21,2.21,0,0,1,16,10.79a4.7,4.7,0,0,1,1.27-3.11A3.58,3.58,0,0,1,20,6.23a1.09,1.09,0,0,1,.84.35,1.29,1.29,0,0,1,.33.91A2.33,2.33,0,0,1,20,9.42a4.64,4.64,0,0,1-2.74.81v.27c0,1.14.42,1.71,1.25,1.71A5,5,0,0,0,21.15,11.13ZM17.27,9.87a3.8,3.8,0,0,0,2.05-.67,1.8,1.8,0,0,0,.74-1.48c0-.6-.22-.9-.65-.9a1.75,1.75,0,0,0-1.36.94A4.36,4.36,0,0,0,17.27,9.87Z"/><path class="cls-2" d="M27.53,9.55h-.1q-1.66,3.33-3.24,3.33c-.63,0-.94-.37-.94-1.11a4.42,4.42,0,0,1,.09-.79l.57-2.87a6.33,6.33,0,0,0,.14-.88c0-.25-.12-.37-.35-.37s-1,.43-1.74,1.29l.1-.54a3.45,3.45,0,0,1,2.31-1.38c.57,0,.85.29.85.88a6.45,6.45,0,0,1-.14,1L24.5,11a3.53,3.53,0,0,0-.08.55c0,.32.12.47.35.47s.73-.35,1.33-1.06a14.22,14.22,0,0,0,1.64-2.48l.43-2.1,1.24-.07L29,8.11,28.4,11a5.6,5.6,0,0,0-.13.88c0,.24.11.37.34.37.39,0,1-.43,1.75-1.29l-.11.54A3.46,3.46,0,0,1,28,12.88a.77.77,0,0,1-.86-.88,5.43,5.43,0,0,1,.15-1Z"/><path class="cls-2" d="M31.35,12.8l.44-1.8.57-2.86a4.57,4.57,0,0,0,.08-.75c0-.34-.11-.5-.35-.5q-.62,0-1.77,1.32l.1-.52a3.66,3.66,0,0,1,2.35-1.46c.56,0,.85.32.85,1a4.77,4.77,0,0,1-.11.94l-.28,1.42h.08A8.24,8.24,0,0,1,35,7.16a2.68,2.68,0,0,1,1.75-.93,1.46,1.46,0,0,1,.73.18l-.78,1.06a1.14,1.14,0,0,0-.59-.23q-1.14,0-3,3.36l-.42,2.13Z"/><path class="cls-2" d="M36.86,12.53l.78-.79a2.59,2.59,0,0,0,1.54.56,1.29,1.29,0,0,0,.82-.25.75.75,0,0,0,.34-.63,2,2,0,0,0-.67-1.14l-.53-.59a2.38,2.38,0,0,1-.78-1.43,1.78,1.78,0,0,1,.76-1.41,2.66,2.66,0,0,1,1.73-.62A3.73,3.73,0,0,1,42,6.45l-.26,1.3h-.37l0-.1s0-.08,0-.13c0-.52-.34-.79-1-.79s-1.14.31-1.14.92A2.18,2.18,0,0,0,40,8.88l.48.53a2.49,2.49,0,0,1,.79,1.45,1.76,1.76,0,0,1-.83,1.41,3.12,3.12,0,0,1-1.9.61A4.44,4.44,0,0,1,36.86,12.53Z"/><path class="cls-2" d="M46.26,12.53l.77-.79a2.64,2.64,0,0,0,1.55.56,1.29,1.29,0,0,0,.82-.25.77.77,0,0,0,.33-.63,2,2,0,0,0-.66-1.14l-.53-.59a2.38,2.38,0,0,1-.78-1.43,1.78,1.78,0,0,1,.76-1.41,2.65,2.65,0,0,1,1.72-.62,3.74,3.74,0,0,1,1.2.22l-.26,1.3h-.37v-.1a.51.51,0,0,0,0-.13c0-.52-.34-.79-1-.79s-1.14.31-1.14.92a2.18,2.18,0,0,0,.68,1.23l.48.53a2.55,2.55,0,0,1,.79,1.45,1.75,1.75,0,0,1-.84,1.41,3.07,3.07,0,0,1-1.89.61A4.4,4.4,0,0,1,46.26,12.53Z"/><path class="cls-2" d="M57,9.55h-.1a8.17,8.17,0,0,1-1.6,2.4,2.6,2.6,0,0,1-1.74.93c-.82,0-1.24-.52-1.24-1.55A5.25,5.25,0,0,1,53.71,8,4.32,4.32,0,0,1,57.15,6.3c.56,0,1.14,0,1.75.07l-.42,1.74L57.91,11a6.33,6.33,0,0,0-.14.88.32.32,0,0,0,.35.37c.39,0,1-.43,1.75-1.29l-.11.54a3.49,3.49,0,0,1-2.31,1.38A.77.77,0,0,1,56.6,12a6.3,6.3,0,0,1,.14-1Zm.47-2.34A3.55,3.55,0,0,0,56,6.88c-.71,0-1.27.45-1.7,1.35a6.84,6.84,0,0,0-.75,2.86c0,.62.18.92.54.92s.82-.35,1.45-1a12.46,12.46,0,0,0,1.66-2.42Z"/><path class="cls-2" d="M65.49,9.55h-.1q-1.66,3.33-3.25,3.33-.93,0-.93-1.11A4.42,4.42,0,0,1,61.3,11l.57-2.87A5.77,5.77,0,0,0,62,7.23c0-.25-.11-.37-.34-.37s-1,.43-1.75,1.29L60,7.61a3.45,3.45,0,0,1,2.31-1.38.77.77,0,0,1,.85.88,5.68,5.68,0,0,1-.15,1L62.46,11a2.61,2.61,0,0,0-.08.55c0,.32.11.47.34.47s.74-.35,1.34-1.06A14.22,14.22,0,0,0,65.7,8.47l.42-2.1,1.25-.07-.44,1.81L66.36,11a6.12,6.12,0,0,0-.14.88.32.32,0,0,0,.35.37q.59,0,1.74-1.29l-.1.54a3.49,3.49,0,0,1-2.31,1.38c-.57,0-.85-.29-.85-.88a6.16,6.16,0,0,1,.14-1Z"/><path class="cls-2" d="M71.29,12.88l0-.8a12.68,12.68,0,0,0-.42-3.65c-.28-.89-.66-1.33-1.14-1.33s-1,.47-1.55,1.4l.17-.86q1.07-1.41,2-1.41,2,0,2,5.13v.32l.48-.58C74.29,9.38,75,8.13,75,7.35a1.42,1.42,0,0,0-.39-1l1.25-.14a1.45,1.45,0,0,1,.29.78,2.07,2.07,0,0,1-.4,1.11A27.18,27.18,0,0,1,74,10.29l-2.1,2.44Z"/><path class="cls-2" d="M81.88,9.55h-.11A8,8,0,0,1,80.18,12a2.6,2.6,0,0,1-1.75.93c-.82,0-1.23-.52-1.23-1.55A5.19,5.19,0,0,1,78.56,8,4.29,4.29,0,0,1,82,6.3c.56,0,1.14,0,1.75.07l-.42,1.74L82.75,11a5.77,5.77,0,0,0-.13.88c0,.24.11.37.34.37.39,0,1-.43,1.75-1.29l-.11.54a3.46,3.46,0,0,1-2.3,1.38c-.57,0-.85-.29-.85-.88a5.29,5.29,0,0,1,.14-1Zm.47-2.34a3.59,3.59,0,0,0-1.46-.33q-1.06,0-1.71,1.35a6.84,6.84,0,0,0-.75,2.86c0,.62.18.92.54.92s.82-.35,1.45-1a12,12,0,0,0,1.66-2.42Z"/><path class="cls-2" d="M86,12.64a1.41,1.41,0,0,1-.71-1.41,5,5,0,0,1,1.41-3.35A4.31,4.31,0,0,1,90.05,6.3c.26,0,.81,0,1.64.07l-.42,1.74L91,9.46c-.14.72-.24,1.25-.29,1.59a14.88,14.88,0,0,1-.65,2.88,4.39,4.39,0,0,1-1.15,1.58,4,4,0,0,1-2.79,1.13,3.12,3.12,0,0,1-1.68-.41,1.17,1.17,0,0,1-.64-1Q83.8,13.9,86,12.64Zm3.86-3.09h-.09a7,7,0,0,1-1.49,2.22,3.36,3.36,0,0,1-1.82,1c-1,.71-1.53,1.36-1.53,2a1.22,1.22,0,0,0,.57,1,2.32,2.32,0,0,0,1.38.41,2,2,0,0,0,1.66-.81,5.91,5.91,0,0,0,.86-2.59Zm.47-2.32a3.18,3.18,0,0,0-1.4-.35,1.61,1.61,0,0,0-1.32.7,5.2,5.2,0,0,0-.78,1.62A6.24,6.24,0,0,0,86.44,11c0,.55.18.83.53.83.76,0,1.79-1.11,3.06-3.34Z"/><path class="cls-2" d="M97.82,11.13l-.09.45a5.89,5.89,0,0,1-3.18,1.3,1.73,1.73,0,0,1-1.35-.58,2.21,2.21,0,0,1-.52-1.51A4.7,4.7,0,0,1,94,7.68a3.58,3.58,0,0,1,2.7-1.45,1.09,1.09,0,0,1,.84.35,1.29,1.29,0,0,1,.33.91,2.33,2.33,0,0,1-1.15,1.93,4.64,4.64,0,0,1-2.74.81v.27c0,1.14.42,1.71,1.25,1.71A5,5,0,0,0,97.82,11.13ZM93.94,9.87a3.8,3.8,0,0,0,2-.67,1.8,1.8,0,0,0,.74-1.48c0-.6-.22-.9-.65-.9a1.75,1.75,0,0,0-1.36.94A4.36,4.36,0,0,0,93.94,9.87Z"/><path class="cls-2" d="M98.41,12.53l.77-.79a2.64,2.64,0,0,0,1.55.56,1.29,1.29,0,0,0,.82-.25.77.77,0,0,0,.33-.63,2,2,0,0,0-.66-1.14l-.53-.59a2.38,2.38,0,0,1-.78-1.43,1.8,1.8,0,0,1,.75-1.41,2.68,2.68,0,0,1,1.73-.62,3.74,3.74,0,0,1,1.2.22l-.26,1.3H103v-.1a.53.53,0,0,0,0-.13c0-.52-.33-.79-1-.79s-1.14.31-1.14.92a2.18,2.18,0,0,0,.68,1.23l.48.53a2.52,2.52,0,0,1,.78,1.45,1.73,1.73,0,0,1-.83,1.41,3.07,3.07,0,0,1-1.89.61A4.4,4.4,0,0,1,98.41,12.53Z"/><rect class="cls-1" width="106.16" height="17.61"/></svg>