<svg id="Calque_1" data-name="Calque 1" xmlns="http://www.w3.org/2000/svg" viewBox="0 0 115.08 59.27"><defs><style>.cls-1{fill:#1d1d1b;}</style></defs><title>clairon-plein</title><path class="cls-1" d="M115.69,5.14c-1.46,0-2.74,1-3.82,2.72-1.35,1.77-8.7,10.79-19.88,14.08-5.91,1.74-13.34,1.93-20.53,2.11-8.17.2-16.62.42-23,2.91-8.5,3.31-13.67,7.53-16,13.2a86.75,86.75,0,0,1-11,3.18,28.94,28.94,0,0,1-6.92.74c-.67,0-1-.46-1.49-1.5s-1.08-2.17-2.55-2.17A1.8,1.8,0,0,0,9,40.94c-.43.53-.27,1.18-.06,2.08a15.45,15.45,0,0,1,.48,3.76A18.23,18.23,0,0,1,9,50.32c-.16.91-.28,1.57.15,2.08a1.85,1.85,0,0,0,1.51.51c1.51,0,2.16-1.19,2.64-2.06.34-.62.57-1,.84-1l1.52.06a33.25,33.25,0,0,0,6-.07A82.59,82.59,0,0,0,31,48c0,.07,0,.13,0,.2,0,9.92,11.4,16.25,19.25,16.25,10.09,0,15.48-3.34,18.21-6.14a12.61,12.61,0,0,0,3.79-9.13c-.11-5-2.08-9-5.7-11.45a16,16,0,0,0-5.26-2.27,118.8,118.8,0,0,1,29,4.95,66,66,0,0,1,22.26,13.07,4.19,4.19,0,0,0,3.21,1.87c5.25,0,8.09-12.93,8.09-25.09S120.94,5.14,115.69,5.14ZM21.56,48.35a32.2,32.2,0,0,1-5.77.06l-1.62-.06c-1.17,0-1.71,1-2.15,1.78s-.76,1.28-1.32,1.28h-.31c0-.2.08-.52.13-.82a19.79,19.79,0,0,0,.37-3.8,16.73,16.73,0,0,0-.52-4.1c-.06-.26-.13-.56-.16-.76h.24c.49,0,.74.41,1.21,1.34s1.16,2.33,2.83,2.33a30.76,30.76,0,0,0,7.22-.77A89.84,89.84,0,0,0,31.8,42,20.6,20.6,0,0,0,31,46.4,85.66,85.66,0,0,1,21.56,48.35ZM90.69,39c-.18-.06-17.58-5.7-35.51-5C49,34.15,44.32,35.87,41.39,39c-2.46,2.66-3.62,6.2-3.44,10.53v.27c0,.89,1,3.19,3.16,5.25a12.37,12.37,0,0,0,8.71,3.51h.58c7.76-.33,16.05-3.23,16.05-10.42a6,6,0,0,0-3-5c-4.29-2.89-13.28-4-22.64-.66a11.11,11.11,0,0,1,1.71-2.47,11.9,11.9,0,0,1,2-1.67c8.41-3,16.32-2.79,21.18.55,3.26,2.23,4.95,5.68,5,10.25a11.18,11.18,0,0,1-3.36,8c-2.54,2.59-7.57,5.68-17.14,5.68-7.23,0-17.75-5.75-17.75-14.75,0-9.24,5.1-15.35,16.53-19.8,6.16-2.4,14.48-2.61,22.52-2.81,7.29-.19,14.82-.38,20.92-2.17a41.41,41.41,0,0,0,17.47-11,63.83,63.83,0,0,0-2.28,17.8c0,7.22,1,14.71,2.91,19.61A67.3,67.3,0,0,0,90.69,39ZM40,44.4c9.24-3.63,18.49-2.71,22.56,0A4.69,4.69,0,0,1,65,48.16c0,6.13-7.55,8.62-14.61,8.92A10.94,10.94,0,0,1,42.17,54a9.14,9.14,0,0,1-2.72-4.19c0-.08,0-.19,0-.33A15.58,15.58,0,0,1,40,44.4Zm75.66,9.41c-3.11,0-6.58-9.69-6.58-23.59,0-10.32,1.91-18.31,4.18-21.74l0-.05h0c.77-1.16,1.58-1.79,2.37-1.79,3.12,0,6.59,9.68,6.59,23.58S118.81,53.81,115.69,53.81Z" transform="translate(-8.7 -5.14)"/></svg>