<svg id="Calque_1" data-name="Calque 1" xmlns="http://www.w3.org/2000/svg" viewBox="0 0 115.08 59.27"><defs><style>.cls-1{fill:none;stroke:#1d1d1b;stroke-miterlimit:10;stroke-width:1.5px;}</style></defs><title>clairon-bordure</title><path class="cls-1" d="M113.11,53A66.05,66.05,0,0,0,90.45,39.66S73.2,34,55.2,34.67,38.7,48.49,38.7,49.83s3.67,8.33,11.67,8S65.7,54.49,65.7,48.16s-13.5-9.5-26.28-4.33" transform="translate(-8.7 -5.14)"/><path class="cls-1" d="M44.08,37.72C57.74,32.8,71.17,36,71.45,49.16c.16,7-6.41,14.5-21.25,14.5-7.5,0-18.5-6-18.5-15.5s5.13-15.88,17-20.5,30.75-1.25,43.5-5S112.71,8,112.71,8" transform="translate(-8.7 -5.14)"/><path class="cls-1" d="M33,40.75a88.26,88.26,0,0,1-11.45,3.33,30.18,30.18,0,0,1-7.06.75c-2.33,0-2-3.67-4-3.67s-.31,1.29-.31,5.62-1.44,5.38.56,5.38,1.91-3.06,3.48-3.06a48.2,48.2,0,0,0,7.46,0A92.15,92.15,0,0,0,31.7,47" transform="translate(-8.7 -5.14)"/><ellipse class="cls-1" cx="106.99" cy="25.08" rx="7.33" ry="24.33"/></svg>