<svg id="Calque_1" data-name="Calque 1" xmlns="http://www.w3.org/2000/svg" viewBox="0 0 244.02 79.78"><defs><style>.cls-1{fill:#1d1d1b;}</style></defs><title>logo2-noir</title><path class="cls-1" d="M146.62,30.19h-4.94V29l1.37-.15V15.43l-1.37-.18V14.11H151a.61.61,0,0,1,.69.68v3h-1.17l-.16-2.47h-5.57v6.32h5.88v1.21h-5.88v6l1.81.18Z" transform="translate(-12.18 -5.2)"/><path class="cls-1" d="M157.17,13.91v13.9c0,.81.31,1.21,1,1.21a4.32,4.32,0,0,0,.92-.13l.2,1.32a5.37,5.37,0,0,1-1.7.29c-1.41,0-2.11-.83-2.11-2.49V14.55l-1.32-.18V13.23h2.4A.59.59,0,0,1,157.17,13.91Z" transform="translate(-12.18 -5.2)"/><path class="cls-1" d="M172,24.26h-8.68a5.49,5.49,0,0,0,1.23,3.81,3.41,3.41,0,0,0,2.66,1.08,8,8,0,0,0,3.62-1l.55,1.28a9.32,9.32,0,0,1-4,1.06,6.35,6.35,0,0,1-2.84-.56,4.54,4.54,0,0,1-1.75-1.51,7.81,7.81,0,0,1-1.24-4.34,8.87,8.87,0,0,1,1.19-4.74,4.3,4.3,0,0,1,1.69-1.52,5.33,5.33,0,0,1,2.5-.55,4.54,4.54,0,0,1,3.69,1.61A6.49,6.49,0,0,1,172,23.18Zm-2.62-4.43a2.94,2.94,0,0,0-2.54-1.21,2.77,2.77,0,0,0-2.48,1.26,6.63,6.63,0,0,0-1,3.15h6.9A5.26,5.26,0,0,0,169.33,19.83Z" transform="translate(-12.18 -5.2)"/><path class="cls-1" d="M185.63,18.27v9.54c0,.81.32,1.21,1,1.21a2.52,2.52,0,0,0,.9-.13l.22,1.32a5.66,5.66,0,0,1-1.69.29A1.87,1.87,0,0,1,184,28.8a7.47,7.47,0,0,1-4.38,1.7,3.79,3.79,0,0,1-2.94-1,4.39,4.39,0,0,1-.86-3V18.91l-1.54-.18V17.59h2.53c.5,0,.75.23.75.68v8.28a3.22,3.22,0,0,0,.5,2,2.08,2.08,0,0,0,1.71.62,6.63,6.63,0,0,0,4.18-1.72V18.91l-1.32-.18V17.59H185A.59.59,0,0,1,185.63,18.27Z" transform="translate(-12.18 -5.2)"/><path class="cls-1" d="M193.38,24v4.87l2.21.15v1.15H190.1V29l1.54-.15v-10l-1.54-.18V17.59h2.34a.6.6,0,0,1,.68.68V21a6.67,6.67,0,0,1,1.79-2.58,4.44,4.44,0,0,1,2.9-1.14V18.8a4.26,4.26,0,0,0-3.14,1.5A5.33,5.33,0,0,0,193.38,24Z" transform="translate(-12.18 -5.2)"/><path class="cls-1" d="M207,19.44a7.45,7.45,0,0,0-3.15-.82,3.58,3.58,0,0,0-2.12.51,1.63,1.63,0,0,0-.7,1.4,1.86,1.86,0,0,0,.71,1.48,6.39,6.39,0,0,0,1.71,1c.68.26,1.35.54,2,.83a4.88,4.88,0,0,1,1.71,1.26,3.24,3.24,0,0,1-.48,4.51,5.74,5.74,0,0,1-6.25,0,4.5,4.5,0,0,1-1.6-2.65l1.52-.36c.51,1.77,1.54,2.65,3.08,2.65a3.25,3.25,0,0,0,2-.55,1.77,1.77,0,0,0,.7-1.47,1.81,1.81,0,0,0-.7-1.48,6,6,0,0,0-1.72-1c-.68-.27-1.35-.55-2-.84A4.59,4.59,0,0,1,200,22.61a3,3,0,0,1-.71-2,2.85,2.85,0,0,1,1.19-2.43,5.15,5.15,0,0,1,3.12-.87,9.83,9.83,0,0,1,4,.88Z" transform="translate(-12.18 -5.2)"/><path class="cls-1" d="M151.73,71H146V69.86l2-.15V65.3l-4-9-1.22-.18V54.93h2a.79.79,0,0,1,.81.5l3.29,7.93,3.24-7.93a.79.79,0,0,1,.81-.5h2v1.14l-1.22.18-4,9v4.48l2,.15Z" transform="translate(-12.18 -5.2)"/><path class="cls-1" d="M248.93,42.77h1c.19,0,.28.09.27.28v5.66c0,.33.12.49.38.49a1.42,1.42,0,0,0,.38-.05l.08.54a2.07,2.07,0,0,1-.69.11.77.77,0,0,1-.85-.8,1.77,1.77,0,0,1-1.48.8,1.69,1.69,0,0,1-.91-.24,1.52,1.52,0,0,1-.59-.64,3.81,3.81,0,0,1-.43-1.81,3.92,3.92,0,0,1,.39-1.8,1.54,1.54,0,0,1,.64-.65,2.14,2.14,0,0,1,1.07-.24,2.85,2.85,0,0,1,1.3.33V43.31l-.54-.07Zm-.69,2.2c-1,0-1.46.71-1.46,2.14a3.61,3.61,0,0,0,.27,1.47,1.17,1.17,0,0,0,.43.5,1.23,1.23,0,0,0,.67.19,1.58,1.58,0,0,0,1.32-.82V45.27A2.54,2.54,0,0,0,248.24,45Z" transform="translate(-12.18 -5.2)"/><path class="cls-1" d="M256.2,47.26h-3.54a2.27,2.27,0,0,0,.5,1.56,1.42,1.42,0,0,0,1.09.44,3.28,3.28,0,0,0,1.47-.41l.23.52a3.84,3.84,0,0,1-1.62.43,2.56,2.56,0,0,1-1.15-.22,2,2,0,0,1-.72-.62,3.24,3.24,0,0,1-.5-1.77,3.55,3.55,0,0,1,.49-1.93,1.7,1.7,0,0,1,.68-.62,2.32,2.32,0,0,1,1-.22,1.83,1.83,0,0,1,1.5.66,2.6,2.6,0,0,1,.55,1.75Zm-1.07-1.8a1.19,1.19,0,0,0-1-.49,1.15,1.15,0,0,0-1,.51,2.73,2.73,0,0,0-.4,1.28h2.81A2.13,2.13,0,0,0,255.13,45.46Z" transform="translate(-12.18 -5.2)"/><path class="cls-1" d="M151,35.69a8.62,8.62,0,0,0-3.74-1.06,3.74,3.74,0,0,0-2.48.72,2.42,2.42,0,0,0-.85,1.94,2.65,2.65,0,0,0,.84,2,6.53,6.53,0,0,0,2,1.29c.79.33,1.58.68,2.36,1a5.73,5.73,0,0,1,2,1.57,4.2,4.2,0,0,1-.55,5.64A5.46,5.46,0,0,1,147.07,50a5.28,5.28,0,0,1-3.55-1.18,5.79,5.79,0,0,1-1.82-3.29l1.54-.38c.6,2.34,1.83,3.5,3.7,3.5a3.53,3.53,0,0,0,2.45-.77,2.72,2.72,0,0,0,.87-2.16,2.76,2.76,0,0,0-1.6-2.46,13.53,13.53,0,0,0-1.57-.76c-.57-.25-1.15-.51-1.73-.8a9.73,9.73,0,0,1-1.58-.95,4,4,0,0,1-1.16-1.39,4.38,4.38,0,0,1-.44-2,3.6,3.6,0,0,1,1.35-3A5.54,5.54,0,0,1,147,33.29a10.92,10.92,0,0,1,4.52,1.08Z" transform="translate(-12.18 -5.2)"/><path class="cls-1" d="M161.74,47.5v-.31a4.73,4.73,0,0,1-4.49,2.8,3.12,3.12,0,0,1-2.36-.91,3.35,3.35,0,0,1-.88-2.46,3.54,3.54,0,0,1,1.76-3.22q1.77-1.08,6-1.08V41.4a3.77,3.77,0,0,0-.68-2.6,3,3,0,0,0-2.22-.71,7.09,7.09,0,0,0-3.42,1.06l-.57-1.32a10.14,10.14,0,0,1,4.31-1.06q3.19,0,4,2.25a6.66,6.66,0,0,1,.33,2.24v6c0,.81.31,1.21.93,1.21a4.43,4.43,0,0,0,.9-.13l.2,1.32a5.3,5.3,0,0,1-1.68.29C162.44,50,161.74,49.16,161.74,47.5Zm0-4.06c-4.05,0-6.08,1-6.08,3a1.95,1.95,0,0,0,2.14,2.14,3.51,3.51,0,0,0,2.73-1.28,5.49,5.49,0,0,0,1.21-3.63Z" transform="translate(-12.18 -5.2)"/><path class="cls-1" d="M178.77,37.76V47.3c0,.81.32,1.21,1,1.21a2.52,2.52,0,0,0,.9-.13l.22,1.32a5.66,5.66,0,0,1-1.69.29,1.87,1.87,0,0,1-2.07-1.7,7.47,7.47,0,0,1-4.38,1.7,3.79,3.79,0,0,1-2.94-1,4.39,4.39,0,0,1-.86-3V38.4l-1.54-.18V37.08h2.53c.5,0,.75.23.75.68V46a3.22,3.22,0,0,0,.5,2,2.08,2.08,0,0,0,1.71.62A6.63,6.63,0,0,0,177.05,47V38.4l-1.32-.18V37.08h2.38A.59.59,0,0,1,178.77,37.76Z" transform="translate(-12.18 -5.2)"/><path class="cls-1" d="M192.14,37.08h1.74v1.14l-1.08.18-3.88,11.28H187l-4.8-12.6H184l4,10.81,3.37-10.24A.78.78,0,0,1,192.14,37.08Z" transform="translate(-12.18 -5.2)"/><path class="cls-1" d="M203.15,47.5v-.31a4.73,4.73,0,0,1-4.49,2.8,3.13,3.13,0,0,1-2.36-.91,3.4,3.4,0,0,1-.88-2.46,3.54,3.54,0,0,1,1.76-3.22q1.77-1.08,6-1.08V41.4a3.72,3.72,0,0,0-.68-2.6,3,3,0,0,0-2.21-.71,7.16,7.16,0,0,0-3.43,1.06l-.57-1.32a10.15,10.15,0,0,1,4.32-1.06q3.19,0,4,2.25a6.66,6.66,0,0,1,.33,2.24v6c0,.81.31,1.21.93,1.21a4.26,4.26,0,0,0,.9-.13l.2,1.32a5.29,5.29,0,0,1-1.67.29Q203.15,50,203.15,47.5Zm0-4.06c-4.05,0-6.08,1-6.08,3a2.11,2.11,0,0,0,.57,1.58,2.14,2.14,0,0,0,1.57.56,3.51,3.51,0,0,0,2.73-1.28,5.44,5.44,0,0,0,1.21-3.63Z" transform="translate(-12.18 -5.2)"/><path class="cls-1" d="M214.32,36.77a5.25,5.25,0,0,1,1.83.31h3.48v1.21h-1.72a4.87,4.87,0,0,1,1,3.22,4.24,4.24,0,0,1-1.18,3.14,4.71,4.71,0,0,1-3.43,1.15,5.09,5.09,0,0,1-2.31-.51l-1.17,1.19a1.48,1.48,0,0,0-.5,1c0,.48.3.73.92.73h4.8a4.23,4.23,0,0,1,2.67.82,2.73,2.73,0,0,1,1.06,2.26,3.09,3.09,0,0,1-1.42,2.7,7.14,7.14,0,0,1-4,1,9,9,0,0,1-4.1-.78,2.61,2.61,0,0,1-1.51-2.48,3.08,3.08,0,0,1,.31-1.3,2.75,2.75,0,0,1,.81-1.08,1.51,1.51,0,0,1-1.12-1.5,3.3,3.3,0,0,1,1.19-2.25l1.06-1a4.42,4.42,0,0,1-1.28-3.36,4.4,4.4,0,0,1,1.18-3.29A4.63,4.63,0,0,1,214.32,36.77ZM216,49.57h-4.78a3,3,0,0,0-.79,2,1.75,1.75,0,0,0,1.08,1.61,6.11,6.11,0,0,0,2.8.56q3.92,0,3.92-2.42a1.51,1.51,0,0,0-.6-1.3A2.7,2.7,0,0,0,216,49.57Zm1.35-8.22a3.46,3.46,0,0,0-.81-2.43,3.21,3.21,0,0,0-4.37-.06,3.43,3.43,0,0,0-.77,2.39,3.5,3.5,0,0,0,.82,2.46,2.88,2.88,0,0,0,2.22.9,2.71,2.71,0,0,0,2.15-.86A3.52,3.52,0,0,0,217.3,41.35Z" transform="translate(-12.18 -5.2)"/><path class="cls-1" d="M232.23,43.75h-8.68a5.45,5.45,0,0,0,1.24,3.81,3.37,3.37,0,0,0,2.65,1.08,8,8,0,0,0,3.62-1l.56,1.28a9.55,9.55,0,0,1-4,1.06,6.35,6.35,0,0,1-2.84-.56,4.54,4.54,0,0,1-1.75-1.51,7.89,7.89,0,0,1-1.24-4.34A8.87,8.87,0,0,1,223,38.84a4.36,4.36,0,0,1,1.69-1.52,5.33,5.33,0,0,1,2.5-.55,4.54,4.54,0,0,1,3.69,1.61,6.49,6.49,0,0,1,1.33,4.29Zm-2.62-4.44a3,3,0,0,0-2.53-1.2,2.8,2.8,0,0,0-2.49,1.26,6.52,6.52,0,0,0-1,3.15h6.89A5.29,5.29,0,0,0,229.61,39.31Z" transform="translate(-12.18 -5.2)"/><path class="cls-1" d="M242.67,38.93a7.45,7.45,0,0,0-3.15-.82,3.58,3.58,0,0,0-2.12.51,1.62,1.62,0,0,0-.7,1.4,1.86,1.86,0,0,0,.71,1.48,6.57,6.57,0,0,0,1.72,1c.67.26,1.34.54,2,.83a4.76,4.76,0,0,1,1.71,1.26,2.94,2.94,0,0,1,.7,2,3,3,0,0,1-1.17,2.51,5.76,5.76,0,0,1-6.26,0,4.55,4.55,0,0,1-1.6-2.65L236,46c.52,1.77,1.54,2.65,3.09,2.65a3.24,3.24,0,0,0,2-.55,1.78,1.78,0,0,0,.71-1.47,1.81,1.81,0,0,0-.71-1.48,6,6,0,0,0-1.72-1c-.67-.27-1.35-.55-2-.84a4.65,4.65,0,0,1-1.72-1.28,3,3,0,0,1-.71-2,2.85,2.85,0,0,1,1.19-2.43,5.17,5.17,0,0,1,3.12-.87,9.83,9.83,0,0,1,3.95.88Z" transform="translate(-12.18 -5.2)"/><path class="cls-1" d="M140.85,62.44V68.1c0,.33.12.49.38.49a2.33,2.33,0,0,0,.38,0l.08.54a2.37,2.37,0,0,1-.69.11c-.58,0-.86-.34-.86-1V62.7l-.54-.08v-.46h1C140.76,62.16,140.85,62.25,140.85,62.44Z" transform="translate(-12.18 -5.2)"/><path class="cls-1" d="M143.74,62.63a2.17,2.17,0,0,1-1,1.71l-.21-.26a1.17,1.17,0,0,0,.43-.8,1.1,1.1,0,0,0-.06-.31,1.63,1.63,0,0,1-.05-.35.39.39,0,0,1,.13-.29.43.43,0,0,1,.34-.14.42.42,0,0,1,.33.13A.43.43,0,0,1,143.74,62.63Z" transform="translate(-12.18 -5.2)"/><path class="cls-1" d="M156.5,63.64a7.35,7.35,0,0,1,1.4-4.79,4.85,4.85,0,0,1,4-1.7A5,5,0,0,1,166,59a7.43,7.43,0,0,1,1.52,4.91,7.33,7.33,0,0,1-1.41,4.8,4.87,4.87,0,0,1-4,1.69A5,5,0,0,1,158,68.55,7.41,7.41,0,0,1,156.5,63.64Zm9.23.22a6.6,6.6,0,0,0-1-3.92,3.28,3.28,0,0,0-2.8-1.44,3.15,3.15,0,0,0-2.72,1.34,6.5,6.5,0,0,0-1,3.81,6.55,6.55,0,0,0,1.05,3.92A3.25,3.25,0,0,0,162.05,69a3.14,3.14,0,0,0,2.71-1.35A6.42,6.42,0,0,0,165.73,63.86Z" transform="translate(-12.18 -5.2)"/><path class="cls-1" d="M179.83,67.88V61.1a3.19,3.19,0,0,0-.5-2,2.1,2.1,0,0,0-1.7-.6,6.35,6.35,0,0,0-4.08,1.63v8.63l1.54.16v1.14h-4.82V68.92l1.54-.16v-10l-1.54-.17V57.46h2.33q.69,0,.69.66V59A7.5,7.5,0,0,1,178,57.15a3.52,3.52,0,0,1,2.75,1,4.42,4.42,0,0,1,.86,3v6.58c0,.81.32,1.22,1,1.22a3.81,3.81,0,0,0,.92-.14l.2,1.33a5.36,5.36,0,0,1-1.7.28C180.53,70.37,179.83,69.54,179.83,67.88Z" transform="translate(-12.18 -5.2)"/><path class="cls-1" d="M195.54,67.88V61.1a3.19,3.19,0,0,0-.5-2,2.11,2.11,0,0,0-1.71-.6,6.35,6.35,0,0,0-4.07,1.63v8.63l1.54.16v1.14H186V68.92l1.54-.16v-10L186,58.61V57.46h2.33c.46,0,.68.22.68.66V59a7.52,7.52,0,0,1,4.67-1.83,3.54,3.54,0,0,1,2.76,1,4.42,4.42,0,0,1,.86,3v6.58c0,.81.31,1.22.94,1.22a3.82,3.82,0,0,0,.93-.14l.2,1.33a5.4,5.4,0,0,1-1.7.28C196.24,70.37,195.54,69.54,195.54,67.88Z" transform="translate(-12.18 -5.2)"/><path class="cls-1" d="M212,64.14h-8.68A5.49,5.49,0,0,0,204.54,68,3.41,3.41,0,0,0,207.2,69a8,8,0,0,0,3.62-1l.55,1.27a9.32,9.32,0,0,1-4,1.06,6.35,6.35,0,0,1-2.84-.56,4.46,4.46,0,0,1-1.75-1.51A7.78,7.78,0,0,1,201.59,64a8.81,8.81,0,0,1,1.19-4.73,4.22,4.22,0,0,1,1.69-1.52,5.33,5.33,0,0,1,2.5-.56,4.54,4.54,0,0,1,3.69,1.61,6.52,6.52,0,0,1,1.33,4.3Zm-2.62-4.44a3,3,0,0,0-2.53-1.2,2.79,2.79,0,0,0-2.49,1.25,6.52,6.52,0,0,0-1,3.15h6.89A5.28,5.28,0,0,0,209.37,59.7Z" transform="translate(-12.18 -5.2)"/><path class="cls-1" d="M68.13,67.43H62.79c0-.23,0-.44,0-.68V23.61q0-7.59,2.31-10.24a7.94,7.94,0,0,1,6.36-2.67,16,16,0,0,1,7.31,1.63l1.8-5.24A24,24,0,0,0,71,5.2q-7.59,0-11.47,3.88T55.67,23.43V66.57c0,.3,0,.57,0,.86h-8.2V11.83l7.4-.72V6.42h-15a19.81,19.81,0,0,0-5-.65,15.77,15.77,0,0,0-11,4.21C20,13.63,18.54,19.44,18.54,25.8V28H12.18v6.27h6.36v39h8.15v-39h11V28H26.69V25.52c0-6.92,1.78-13.1,8.8-13.1a12.74,12.74,0,0,1,4.75.83V67l-5.6.63V72.3H55.21a9.51,9.51,0,0,1-1.84,4.51A7.94,7.94,0,0,1,47,79.48a16.13,16.13,0,0,1-7.31-1.63l-1.81,5.24A24.11,24.11,0,0,0,47.46,85c5,0,8.88-1.29,11.46-3.88,1.83-1.83,3-4.78,3.54-8.8h8.28a2.47,2.47,0,0,0,2.8-2.8V57H68.85Z" transform="translate(-12.18 -5.2)"/><path class="cls-1" d="M115.94,48.81,132.19,12l5-.73V6.57h-8.21a3.32,3.32,0,0,0-3.34,2.08L112.33,41.14,106,25.94l4.64-14.57,4.24-.72V6h-7.58a3,3,0,0,0-3.07,2.34L101.91,16l-3-7.3a3.33,3.33,0,0,0-3.34-2.08H87.24v4.69l5,.73,6.45,14.5-11.72,38h-.36L76.12,30.42a3,3,0,0,0-3.07-2.35H65.47v4.7l4.15.72L82.07,71.84h9.38l11.42-35.91,5.85,13.15v18l-8.12.63v4.7h23.47v-4.7l-8.13-.63Z" transform="translate(-12.18 -5.2)"/></svg>