<svg id="Calque_1" data-name="Calque 1" xmlns="http://www.w3.org/2000/svg" viewBox="0 0 238.67 71.09"><title>logo2-noir</title><path d="M139.07,28.76h-5.16v-1.2l1.43-.16V13.32l-1.43-.18v-1.2h9.77a.63.63,0,0,1,.71.71v3.14h-1.22L143,13.21h-5.83v6.61h6.15v1.26h-6.15V27.4l1.89.18Z" transform="translate(-15 -9.54)"/><path d="M150.11,11.73V26.27q0,1.26,1,1.26a4.89,4.89,0,0,0,1-.13l.2,1.38a5.58,5.58,0,0,1-1.77.3c-1.48,0-2.21-.87-2.21-2.61V12.4l-1.39-.18V11h2.52A.62.62,0,0,1,150.11,11.73Z" transform="translate(-15 -9.54)"/><path d="M165.56,22.56h-9.07a5.72,5.72,0,0,0,1.29,4,3.5,3.5,0,0,0,2.77,1.13,8.36,8.36,0,0,0,3.79-1l.58,1.33a9.81,9.81,0,0,1-4.14,1.11,6.62,6.62,0,0,1-3-.59A4.79,4.79,0,0,1,156,26.91a8.19,8.19,0,0,1-1.29-4.54,9.23,9.23,0,0,1,1.25-4.95,4.45,4.45,0,0,1,1.76-1.59,5.64,5.64,0,0,1,2.61-.57,4.74,4.74,0,0,1,3.86,1.68,6.81,6.81,0,0,1,1.39,4.49Zm-2.74-4.64a3.07,3.07,0,0,0-2.65-1.26,2.93,2.93,0,0,0-2.6,1.31,7,7,0,0,0-1,3.3h7.21A5.48,5.48,0,0,0,162.82,17.92Z" transform="translate(-15 -9.54)"/><path d="M179.87,16.29v10c0,.84.34,1.26,1,1.26a2.83,2.83,0,0,0,1-.13l.23,1.38a5.88,5.88,0,0,1-1.78.3,2,2,0,0,1-2.16-1.78,7.75,7.75,0,0,1-4.57,1.78,4,4,0,0,1-3.08-1,4.59,4.59,0,0,1-.9-3.13V17L168,16.78v-1.2h2.65c.52,0,.78.24.78.71V25a3.34,3.34,0,0,0,.52,2.1,2.18,2.18,0,0,0,1.79.65,6.91,6.91,0,0,0,4.37-1.8V17l-1.38-.18v-1.2h2.49A.62.62,0,0,1,179.87,16.29Z" transform="translate(-15 -9.54)"/><path d="M188,22.31V27.4l2.3.16v1.2h-5.73v-1.2l1.61-.16V17l-1.61-.18v-1.2H187a.63.63,0,0,1,.71.71v2.86a7,7,0,0,1,1.88-2.71,4.69,4.69,0,0,1,3-1.18v1.59a4.43,4.43,0,0,0-3.28,1.56A5.61,5.61,0,0,0,188,22.31Z" transform="translate(-15 -9.54)"/><path d="M202.26,17.51a7.91,7.91,0,0,0-3.29-.85,3.84,3.84,0,0,0-2.23.53,1.71,1.71,0,0,0-.72,1.46,1.92,1.92,0,0,0,.73,1.55,6.77,6.77,0,0,0,1.8,1c.71.28,1.41.57,2.11.88a4.94,4.94,0,0,1,1.78,1.31,3.06,3.06,0,0,1,.74,2.1A3.11,3.11,0,0,1,202,28.13a6,6,0,0,1-6.54,0,4.68,4.68,0,0,1-1.67-2.78l1.59-.37c.53,1.85,1.61,2.77,3.22,2.77a3.3,3.3,0,0,0,2.1-.58,1.84,1.84,0,0,0,.74-1.53,1.9,1.9,0,0,0-.74-1.55,6.73,6.73,0,0,0-1.8-1c-.71-.27-1.41-.57-2.12-.87a4.94,4.94,0,0,1-1.79-1.34,3.13,3.13,0,0,1-.74-2.12,3,3,0,0,1,1.24-2.54,5.38,5.38,0,0,1,3.26-.91,10.26,10.26,0,0,1,4.14.92Z" transform="translate(-15 -9.54)"/><path d="M144.42,71.44h-6v-1.2l2.07-.16V65.47L136.29,56,135,55.82v-1.2h2.12a.84.84,0,0,1,.85.53l3.44,8.3,3.38-8.3a.85.85,0,0,1,.85-.53h2.1v1.2l-1.27.19-4.14,9.39v4.68l2.07.16Z" transform="translate(-15 -9.54)"/><path d="M246.07,41.91h1c.2,0,.29.1.28.29v5.92c0,.35.13.52.4.52a1.55,1.55,0,0,0,.4-.06l.08.57a2.27,2.27,0,0,1-.72.12.81.81,0,0,1-.89-.85,1.84,1.84,0,0,1-1.55.85,1.81,1.81,0,0,1-.94-.25,1.76,1.76,0,0,1-.63-.67,4.42,4.42,0,0,1,0-3.78,1.6,1.6,0,0,1,.66-.68,2.24,2.24,0,0,1,1.12-.25,2.84,2.84,0,0,1,1.36.35V42.48l-.56-.08Zm-.73,2.3c-1,0-1.52.75-1.52,2.24A3.87,3.87,0,0,0,244.1,48a1.12,1.12,0,0,0,.45.53,1.25,1.25,0,0,0,.7.2,1.65,1.65,0,0,0,1.38-.86V44.53A2.68,2.68,0,0,0,245.34,44.21Z" transform="translate(-15 -9.54)"/><path d="M253.67,46.61H250a2.35,2.35,0,0,0,.52,1.63,1.49,1.49,0,0,0,1.14.46,3.34,3.34,0,0,0,1.54-.43l.23.55a4,4,0,0,1-1.68.45,2.66,2.66,0,0,1-1.21-.24,1.89,1.89,0,0,1-.75-.64,3.35,3.35,0,0,1-.52-1.85,3.83,3.83,0,0,1,.5-2,2,2,0,0,1,.72-.65,2.41,2.41,0,0,1,1.07-.23,1.94,1.94,0,0,1,1.57.68,2.78,2.78,0,0,1,.57,1.83Zm-1.12-1.89a1.26,1.26,0,0,0-1.08-.51,1.19,1.19,0,0,0-1.06.54,2.69,2.69,0,0,0-.42,1.34h2.94A2.27,2.27,0,0,0,252.55,44.72Z" transform="translate(-15 -9.54)"/><path d="M143.67,34.51a9,9,0,0,0-3.92-1.11,3.92,3.92,0,0,0-2.59.75,2.53,2.53,0,0,0-.89,2,2.8,2.8,0,0,0,.88,2.11,7,7,0,0,0,2.12,1.35c.83.34,1.65.71,2.48,1.09a5.8,5.8,0,0,1,2.1,1.65,3.94,3.94,0,0,1,.88,2.61,4,4,0,0,1-1.45,3.28,5.66,5.66,0,0,1-3.73,1.19,5.48,5.48,0,0,1-3.71-1.23,6.11,6.11,0,0,1-1.92-3.45l1.62-.39c.63,2.44,1.92,3.67,3.87,3.67a3.75,3.75,0,0,0,2.57-.81,2.89,2.89,0,0,0,.91-2.26,2.93,2.93,0,0,0-1.69-2.58,14.58,14.58,0,0,0-1.63-.79c-.6-.26-1.2-.53-1.81-.83a10.78,10.78,0,0,1-1.66-1,4,4,0,0,1-1.21-1.45,4.42,4.42,0,0,1-.46-2.07,3.75,3.75,0,0,1,1.42-3.14A5.69,5.69,0,0,1,139.51,32a11.45,11.45,0,0,1,4.73,1.13Z" transform="translate(-15 -9.54)"/><path d="M154.89,46.86v-.33a5,5,0,0,1-4.7,2.93,3.3,3.3,0,0,1-2.47-.94,3.55,3.55,0,0,1-.92-2.58,3.73,3.73,0,0,1,1.84-3.37q1.85-1.12,6.25-1.13v-1a3.91,3.91,0,0,0-.72-2.72,3.09,3.09,0,0,0-2.31-.74,7.46,7.46,0,0,0-3.58,1.11l-.6-1.39a10.76,10.76,0,0,1,4.51-1.1q3.34,0,4.17,2.35a7,7,0,0,1,.35,2.35v6.31c0,.85.32,1.27,1,1.27a5,5,0,0,0,1-.14l.21,1.38a5.55,5.55,0,0,1-1.75.3C155.62,49.46,154.89,48.59,154.89,46.86Zm0-4.24q-6.36,0-6.36,3.18a2.22,2.22,0,0,0,.59,1.64,2.19,2.19,0,0,0,1.64.59,3.71,3.71,0,0,0,2.86-1.33,5.77,5.77,0,0,0,1.27-3.8Z" transform="translate(-15 -9.54)"/><path d="M172.69,36.68v10c0,.85.34,1.27,1,1.27a2.74,2.74,0,0,0,.94-.14l.23,1.38a5.87,5.87,0,0,1-1.77.3,2,2,0,0,1-2.17-1.77,7.77,7.77,0,0,1-4.57,1.77,4,4,0,0,1-3.07-1,4.58,4.58,0,0,1-.9-3.12v-8l-1.62-.18V36h2.65c.53,0,.79.24.79.72v8.66a3.32,3.32,0,0,0,.52,2.09,2.16,2.16,0,0,0,1.78.65,6.91,6.91,0,0,0,4.38-1.8V37.34l-1.38-.18V36H172Q172.69,36,172.69,36.68Z" transform="translate(-15 -9.54)"/><path d="M186.68,36h1.82v1.2l-1.13.18-4.06,11.8h-2l-5-13.18h1.82l4.19,11.31,3.52-10.71A.83.83,0,0,1,186.68,36Z" transform="translate(-15 -9.54)"/><path d="M198.2,46.86v-.33a5,5,0,0,1-4.7,2.93,3.3,3.3,0,0,1-2.47-.94,3.55,3.55,0,0,1-.92-2.58A3.71,3.71,0,0,1,192,42.57q1.85-1.12,6.25-1.13v-1a3.91,3.91,0,0,0-.72-2.72,3.11,3.11,0,0,0-2.31-.74,7.49,7.49,0,0,0-3.59,1.11l-.6-1.39a10.84,10.84,0,0,1,4.52-1.1q3.34,0,4.17,2.35a7,7,0,0,1,.35,2.35v6.31c0,.85.32,1.27,1,1.27a5,5,0,0,0,1-.14l.2,1.38a5.46,5.46,0,0,1-1.75.3C198.92,49.46,198.2,48.59,198.2,46.86Zm0-4.24q-6.36,0-6.36,3.18A2,2,0,0,0,194.07,48a3.71,3.71,0,0,0,2.86-1.33,5.77,5.77,0,0,0,1.27-3.8Z" transform="translate(-15 -9.54)"/><path d="M209.87,35.64a5.77,5.77,0,0,1,1.92.32h3.64v1.27h-1.8a5.1,5.1,0,0,1,1.06,3.36,4.38,4.38,0,0,1-1.23,3.28,4.9,4.9,0,0,1-3.59,1.21,5.21,5.21,0,0,1-2.41-.53l-1.22,1.25a1.51,1.51,0,0,0-.53,1.08c0,.51.32.76,1,.76h5a4.4,4.4,0,0,1,2.79.86,2.85,2.85,0,0,1,1.11,2.37,3.22,3.22,0,0,1-1.49,2.82,7.44,7.44,0,0,1-4.19,1,9.36,9.36,0,0,1-4.29-.82,2.72,2.72,0,0,1-1.57-2.59,3.24,3.24,0,0,1,.32-1.36,2.91,2.91,0,0,1,.85-1.13,1.58,1.58,0,0,1-1.17-1.56,3.4,3.4,0,0,1,1.24-2.35l1.11-1.06a4.66,4.66,0,0,1-1.34-3.52,4.62,4.62,0,0,1,1.23-3.44A4.9,4.9,0,0,1,209.87,35.64ZM211.58,49h-5a3.23,3.23,0,0,0-.83,2.09,1.83,1.83,0,0,0,1.13,1.68,6.36,6.36,0,0,0,2.93.59q4.09,0,4.1-2.54a1.58,1.58,0,0,0-.63-1.36A2.84,2.84,0,0,0,211.58,49Zm1.4-8.59a3.7,3.7,0,0,0-.84-2.55,3.34,3.34,0,0,0-4.57-.05,3.53,3.53,0,0,0-.8,2.5,3.65,3.65,0,0,0,.86,2.57,3,3,0,0,0,2.31.94,2.84,2.84,0,0,0,2.25-.9A3.65,3.65,0,0,0,213,40.43Z" transform="translate(-15 -9.54)"/><path d="M228.6,42.94h-9.07a5.75,5.75,0,0,0,1.29,4,3.54,3.54,0,0,0,2.77,1.13,8.38,8.38,0,0,0,3.79-1l.58,1.33a9.81,9.81,0,0,1-4.14,1.11,6.62,6.62,0,0,1-3-.59A4.76,4.76,0,0,1,219,47.3a8.22,8.22,0,0,1-1.29-4.54,9.24,9.24,0,0,1,1.24-5,4.55,4.55,0,0,1,1.77-1.59,5.64,5.64,0,0,1,2.61-.57,4.75,4.75,0,0,1,3.86,1.68,6.81,6.81,0,0,1,1.39,4.49Zm-2.74-4.64A3.07,3.07,0,0,0,223.21,37a2.91,2.91,0,0,0-2.6,1.32,6.88,6.88,0,0,0-1,3.29h7.21A5.5,5.5,0,0,0,225.86,38.3Z" transform="translate(-15 -9.54)"/><path d="M239.52,37.9a7.75,7.75,0,0,0-3.29-.86,3.78,3.78,0,0,0-2.22.53,1.71,1.71,0,0,0-.73,1.47,1.9,1.9,0,0,0,.74,1.54,6.57,6.57,0,0,0,1.79,1c.71.27,1.41.56,2.11.87a5.1,5.1,0,0,1,1.79,1.31,3.41,3.41,0,0,1-.5,4.73,6,6,0,0,1-6.54,0A4.73,4.73,0,0,1,231,45.71l1.59-.37c.54,1.84,1.61,2.76,3.22,2.76a3.37,3.37,0,0,0,2.1-.57,1.87,1.87,0,0,0,.74-1.54,1.92,1.92,0,0,0-.74-1.55,6.73,6.73,0,0,0-1.8-1c-.7-.27-1.41-.56-2.12-.87a4.83,4.83,0,0,1-1.79-1.34,3.13,3.13,0,0,1-.74-2.12,3,3,0,0,1,1.24-2.54,5.38,5.38,0,0,1,3.26-.91,10.43,10.43,0,0,1,4.14.92Z" transform="translate(-15 -9.54)"/><path d="M133,62.48V68.4c0,.34.13.52.4.52a1.84,1.84,0,0,0,.4-.06l.08.56a2.27,2.27,0,0,1-.72.12c-.6,0-.9-.35-.9-1.06V62.75l-.57-.07v-.49h1A.25.25,0,0,1,133,62.48Z" transform="translate(-15 -9.54)"/><path d="M136.07,62.68A2.26,2.26,0,0,1,135,64.47l-.23-.27a1.2,1.2,0,0,0,.45-.84,1.09,1.09,0,0,0-.05-.32,1.35,1.35,0,0,1-.06-.37.45.45,0,0,1,.13-.3.46.46,0,0,1,.36-.15.45.45,0,0,1,.35.14A.41.41,0,0,1,136.07,62.68Z" transform="translate(-15 -9.54)"/><path d="M149.41,63.74a7.69,7.69,0,0,1,1.46-5A5.09,5.09,0,0,1,155,57a5.27,5.27,0,0,1,4.27,1.9A7.74,7.74,0,0,1,160.88,64a7.64,7.64,0,0,1-1.47,5,5.09,5.09,0,0,1-4.16,1.78,5.26,5.26,0,0,1-4.26-1.9A7.81,7.81,0,0,1,149.41,63.74Zm9.65.23a6.92,6.92,0,0,0-1.08-4.1,3.41,3.41,0,0,0-2.92-1.51,3.29,3.29,0,0,0-2.85,1.41,6.75,6.75,0,0,0-1,4,6.87,6.87,0,0,0,1.09,4.1,3.41,3.41,0,0,0,2.92,1.52,3.31,3.31,0,0,0,2.83-1.4A6.74,6.74,0,0,0,159.06,64Z" transform="translate(-15 -9.54)"/><path d="M173.81,68.18v-7.1a3.32,3.32,0,0,0-.52-2.08,2.18,2.18,0,0,0-1.79-.64,6.64,6.64,0,0,0-4.26,1.71v9l1.61.16v1.2h-5v-1.2l1.61-.16V58.66l-1.61-.18v-1.2h2.44c.48,0,.71.23.71.69v.9A7.83,7.83,0,0,1,171.85,57a3.65,3.65,0,0,1,2.88,1,4.58,4.58,0,0,1,.9,3.11V68q0,1.26,1,1.26a4,4,0,0,0,1-.13l.21,1.38a5.58,5.58,0,0,1-1.77.3C174.54,70.78,173.81,69.91,173.81,68.18Z" transform="translate(-15 -9.54)"/><path d="M190.23,68.18v-7.1a3.25,3.25,0,0,0-.52-2.08,2.16,2.16,0,0,0-1.78-.64,6.64,6.64,0,0,0-4.26,1.71v9l1.61.16v1.2h-5.05v-1.2l1.62-.16V58.66l-1.62-.18v-1.2h2.45a.62.62,0,0,1,.71.69v.9A7.81,7.81,0,0,1,188.27,57a3.65,3.65,0,0,1,2.88,1,4.58,4.58,0,0,1,.9,3.11V68q0,1.26,1,1.26a4.12,4.12,0,0,0,1-.13l.21,1.38a5.59,5.59,0,0,1-1.78.3C191,70.78,190.23,69.91,190.23,68.18Z" transform="translate(-15 -9.54)"/><path d="M207.44,64.26h-9.08a5.72,5.72,0,0,0,1.29,4,3.53,3.53,0,0,0,2.78,1.13,8.39,8.39,0,0,0,3.79-1l.57,1.33a9.77,9.77,0,0,1-4.13,1.11,6.57,6.57,0,0,1-3-.59,4.64,4.64,0,0,1-1.83-1.58,8.19,8.19,0,0,1-1.29-4.54,9.23,9.23,0,0,1,1.24-4.95,4.59,4.59,0,0,1,1.76-1.59,5.71,5.71,0,0,1,2.62-.57,4.75,4.75,0,0,1,3.86,1.68,6.87,6.87,0,0,1,1.39,4.49Zm-2.74-4.64a3.09,3.09,0,0,0-2.65-1.26,2.93,2.93,0,0,0-2.6,1.31,6.85,6.85,0,0,0-1,3.3h7.21A5.54,5.54,0,0,0,204.7,59.62Z" transform="translate(-15 -9.54)"/><path d="M120.29,11.35a2.94,2.94,0,0,0-3,1.83L105.62,41.89,101.5,32l5-15.82,3.75-.64V11.35h-6.7a2.63,2.63,0,0,0-2.71,2.07l-3,9.75-4.14-10a2.93,2.93,0,0,0-3-1.83H83.45v4.14l4.38.64L95,32.33,85.56,63.11h-.32l-9.68-32A2.63,2.63,0,0,0,72.85,29H68.09v5.69h2L81.25,69.57h8.3l9.19-28.93,3.69,8.27v16l-7.18.56v4.15H116V65.42l-7.18-.56V48.67l14.35-32.54,4.39-.64V11.35Z" transform="translate(-15 -9.54)"/><path d="M63.58,64.88c0-.12,0-.23,0-.35V26.4q0-6.69,2-9A7,7,0,0,1,71.24,15a14.3,14.3,0,0,1,6.46,1.43l1.6-4.62a21.18,21.18,0,0,0-8.45-1.68q-6.7,0-10.13,3.43T57.29,26.24V64.37c0,.26,0,.5,0,.76H50V16l6.54-.64V11.21H43.24a6.67,6.67,0,0,1-1.67-.51,16.78,16.78,0,0,0-6.2-1.16,13.92,13.92,0,0,0-9.76,3.73c-3.39,3.22-4.63,8.35-4.63,14v1.91H15.35v5.54H21V65l-6,.46v4.14H35.68V65.43l-7.16-.55h-.34V34.69H39.3V29.15H28.18V27c0-6.12,1.57-11.58,7.77-11.58,2.07,0,3,0,4,.1l3.69.48V64.73l-3.38.56v4.14H55v.14h1.9a8.25,8.25,0,0,1-1.6,3.85,7,7,0,0,1-5.62,2.35,14.33,14.33,0,0,1-6.46-1.43L41.57,79A21.22,21.22,0,0,0,50,80.64q6.69,0,10.13-3.43c1.59-1.6,2.62-4.16,3.1-7.64H75.63V65.43l-7.16-.55Z" transform="translate(-15 -9.54)"/></svg>