<svg id="Calque_1" data-name="Calque 1" xmlns="http://www.w3.org/2000/svg" viewBox="0 0 114.51 72.33"><defs><style>.cls-1{fill:#fff;}</style></defs><title>logo-simple-blanc</title><path class="cls-1" d="M112.3,9.17a3,3,0,0,0-3,1.86L97.37,40.25,93.18,30.13,98.3,14l3.82-.65V9.17H95.3a2.67,2.67,0,0,0-2.76,2.11l-3.06,9.91L85.28,11a3,3,0,0,0-3-1.86H74.81v4.22l4.46.65,7.34,16.48L77,61.83h-.32L66.79,29.24A2.68,2.68,0,0,0,64,27.13H59.19v5.79h2.05L72.58,68.41H81L90.38,39l3.74,8.42V63.62l-7.3.57v4.22h21.1V64.19l-7.3-.57V47.15L115.22,14l4.47-.65V9.17Z" transform="translate(-5.17 -7.33)"/><path class="cls-1" d="M54.6,63.63c0-.12,0-.23,0-.35V24.49q0-6.82,2.07-9.21a7.14,7.14,0,0,1,5.72-2.4A14.55,14.55,0,0,1,69,14.34l1.62-4.7A21.51,21.51,0,0,0,62,7.93q-6.81,0-10.3,3.49T48.2,24.32V63.11c0,.27,0,.52,0,.77H40.81v-50l6.65-.65V9H33.9a6.64,6.64,0,0,1-1.69-.52A17.13,17.13,0,0,0,25.9,7.33,14.19,14.19,0,0,0,16,11.12c-3.45,3.28-4.71,8.5-4.71,14.22v1.94H5.53v5.64h5.73V63.73l-6.09.47v4.21h21V64.2l-7.28-.57h-.35V32.92H29.9V27.28H18.58V25.09c0-6.23,1.6-11.78,7.91-11.78,2.1,0,3.05,0,4.08.1l3.75.49V63.48l-3.44.57v4.22H45.82v.14h1.94a8.52,8.52,0,0,1-1.63,3.91,7.16,7.16,0,0,1-5.72,2.4,14.56,14.56,0,0,1-6.58-1.46L32.21,78a21.54,21.54,0,0,0,8.6,1.71q6.82,0,10.31-3.49c1.62-1.63,2.66-4.23,3.15-7.77H66.86V64.2l-7.28-.57Z" transform="translate(-5.17 -7.33)"/></svg>