<svg id="Calque_1" data-name="Calque 1" xmlns="http://www.w3.org/2000/svg" viewBox="0 0 123.81 61.35"><defs><style>.cls-1{fill:#1d1d1b;}</style></defs><title>logo-noir</title><path class="cls-1" d="M28.26,34.64H23V33.42l1.45-.16V19L23,18.78V17.57h9.91a.64.64,0,0,1,.73.72v3.18H32.42l-.16-2.62H26.34v6.72h6.24v1.28H26.34v6.41l1.92.19Z" transform="translate(-20.8 -16.63)"/><path class="cls-1" d="M39.46,17.35V32.11c0,.86.33,1.29,1,1.29a5.14,5.14,0,0,0,1-.14l.21,1.4a5.5,5.5,0,0,1-1.8.31q-2.25,0-2.25-2.64V18l-1.4-.18V16.63h2.55A.63.63,0,0,1,39.46,17.35Z" transform="translate(-20.8 -16.63)"/><path class="cls-1" d="M55.16,28.35H45.94a5.85,5.85,0,0,0,1.31,4,3.62,3.62,0,0,0,2.82,1.14,8.57,8.57,0,0,0,3.85-1l.58,1.36A10.08,10.08,0,0,1,50.3,35a6.68,6.68,0,0,1-3-.6,4.93,4.93,0,0,1-1.86-1.6,8.36,8.36,0,0,1-1.31-4.61,9.41,9.41,0,0,1,1.27-5,4.51,4.51,0,0,1,1.79-1.61,5.69,5.69,0,0,1,2.65-.59,4.81,4.81,0,0,1,3.92,1.71,7,7,0,0,1,1.42,4.56Zm-2.79-4.71a3.13,3.13,0,0,0-2.69-1.28A3,3,0,0,0,47,23.69,7,7,0,0,0,46,27h7.32A5.57,5.57,0,0,0,52.37,23.64Z" transform="translate(-20.8 -16.63)"/><path class="cls-1" d="M69.68,22V32.11c0,.86.34,1.29,1,1.29a2.87,2.87,0,0,0,1-.14l.23,1.4a5.77,5.77,0,0,1-1.8.31,2,2,0,0,1-2.2-1.8A7.9,7.9,0,0,1,63.26,35a4,4,0,0,1-3.12-1,4.63,4.63,0,0,1-.91-3.17V22.66l-1.64-.18V21.26h2.69c.53,0,.79.24.79.73v8.79a3.43,3.43,0,0,0,.53,2.13,2.18,2.18,0,0,0,1.81.65,7,7,0,0,0,4.45-1.82V22.66l-1.41-.18V21.26H69C69.45,21.26,69.68,21.5,69.68,22Z" transform="translate(-20.8 -16.63)"/><path class="cls-1" d="M77.92,28.09v5.17l2.33.16v1.22H74.43V33.42l1.64-.16V22.66l-1.64-.18V21.26h2.48a.64.64,0,0,1,.72.73v2.9a7.18,7.18,0,0,1,1.91-2.75,4.77,4.77,0,0,1,3.08-1.21v1.62a4.57,4.57,0,0,0-3.34,1.59A5.68,5.68,0,0,0,77.92,28.09Z" transform="translate(-20.8 -16.63)"/><path class="cls-1" d="M92.42,23.23a7.87,7.87,0,0,0-3.35-.87,3.81,3.81,0,0,0-2.25.54,1.71,1.71,0,0,0-.74,1.48A1.94,1.94,0,0,0,86.83,26a6.63,6.63,0,0,0,1.82,1c.72.28,1.43.58,2.14.89a5,5,0,0,1,1.81,1.33,3.44,3.44,0,0,1-.5,4.8,5.29,5.29,0,0,1-3.31,1,5.22,5.22,0,0,1-3.33-1,4.79,4.79,0,0,1-1.7-2.81l1.62-.38q.81,2.8,3.27,2.81A3.4,3.4,0,0,0,90.78,33a1.86,1.86,0,0,0,.75-1.55,1.93,1.93,0,0,0-.75-1.58,6.76,6.76,0,0,0-1.82-1c-.72-.28-1.44-.58-2.16-.89A4.87,4.87,0,0,1,85,26.59a3.22,3.22,0,0,1-.75-2.15,3,3,0,0,1,1.26-2.58,5.47,5.47,0,0,1,3.31-.93,10.53,10.53,0,0,1,4.2.94Z" transform="translate(-20.8 -16.63)"/><path class="cls-1" d="M33.69,78H27.6V76.77l2.11-.17V71.92l-4.28-9.61-1.29-.19V60.91H26.3a.86.86,0,0,1,.86.53l3.49,8.43,3.43-8.43a.88.88,0,0,1,.87-.53h2.13v1.21l-1.29.19-4.21,9.54V76.6l2.11.17Z" transform="translate(-20.8 -16.63)"/><path class="cls-1" d="M136.9,48h1c.2,0,.3.1.28.29v6c0,.35.14.52.41.52a1.55,1.55,0,0,0,.4-.06l.09.58a2.39,2.39,0,0,1-.74.12.83.83,0,0,1-.9-.86,1.89,1.89,0,0,1-1.57.86,1.79,1.79,0,0,1-1-.26,1.62,1.62,0,0,1-.63-.67,4.5,4.5,0,0,1,0-3.84A1.59,1.59,0,0,1,135,50a2.29,2.29,0,0,1,1.14-.26,3.07,3.07,0,0,1,1.38.35V48.57l-.57-.08Zm-.74,2.33c-1,0-1.54.76-1.54,2.28a3.76,3.76,0,0,0,.29,1.55,1.2,1.2,0,0,0,.45.54,1.28,1.28,0,0,0,.71.2,1.66,1.66,0,0,0,1.4-.87V50.66A2.63,2.63,0,0,0,136.16,50.33Z" transform="translate(-20.8 -16.63)"/><path class="cls-1" d="M144.62,52.77h-3.76a2.34,2.34,0,0,0,.54,1.65,1.46,1.46,0,0,0,1.14.47,3.42,3.42,0,0,0,1.57-.43l.24.55a4,4,0,0,1-1.71.46,2.75,2.75,0,0,1-1.23-.24,2,2,0,0,1-.76-.66,3.4,3.4,0,0,1-.53-1.87,3.82,3.82,0,0,1,.51-2.05,1.87,1.87,0,0,1,.73-.66,2.32,2.32,0,0,1,1.08-.24,2,2,0,0,1,1.6.7,2.83,2.83,0,0,1,.58,1.86Zm-1.14-1.92a1.28,1.28,0,0,0-1.09-.52,1.22,1.22,0,0,0-1.08.55,2.88,2.88,0,0,0-.43,1.36h3A2.27,2.27,0,0,0,143.48,50.85Z" transform="translate(-20.8 -16.63)"/><path class="cls-1" d="M32.93,40.48a9.12,9.12,0,0,0-4-1.12,4,4,0,0,0-2.63.76,2.56,2.56,0,0,0-.9,2.06,2.8,2.8,0,0,0,.89,2.14,7,7,0,0,0,2.15,1.37c.84.35,1.68.72,2.51,1.11a6,6,0,0,1,2.14,1.67A4,4,0,0,1,34,51.13a4.07,4.07,0,0,1-1.47,3.33,5.83,5.83,0,0,1-3.79,1.2A5.54,5.54,0,0,1,25,54.41,6.19,6.19,0,0,1,23,50.92l1.64-.4q1,3.72,3.93,3.72a3.85,3.85,0,0,0,2.61-.82,3,3,0,0,0-.79-4.91,15.12,15.12,0,0,0-1.66-.81q-.92-.39-1.83-.84a12,12,0,0,1-1.69-1A4.32,4.32,0,0,1,24,44.37a4.59,4.59,0,0,1-.47-2.11A3.82,3.82,0,0,1,25,39.07a5.81,5.81,0,0,1,3.72-1.14,11.72,11.72,0,0,1,4.81,1.15Z" transform="translate(-20.8 -16.63)"/><path class="cls-1" d="M44.32,53v-.33a5,5,0,0,1-4.78,3,3.35,3.35,0,0,1-2.5-1,3.58,3.58,0,0,1-.93-2.62A3.73,3.73,0,0,1,38,48.67c1.25-.76,3.36-1.15,6.34-1.15v-1a4,4,0,0,0-.73-2.76A3.14,3.14,0,0,0,41.24,43a7.63,7.63,0,0,0-3.64,1.13L37,42.75a10.8,10.8,0,0,1,4.58-1.12q3.39,0,4.23,2.38a7,7,0,0,1,.36,2.39v6.41c0,.86.32,1.29,1,1.29a5.09,5.09,0,0,0,1-.14l.21,1.4a5.68,5.68,0,0,1-1.78.3Q44.32,55.66,44.32,53Zm0-4.3q-6.47,0-6.46,3.22a2.07,2.07,0,0,0,2.27,2.27A3.78,3.78,0,0,0,43,52.86,5.88,5.88,0,0,0,44.32,49Z" transform="translate(-20.8 -16.63)"/><path class="cls-1" d="M62.4,42.68V52.81c0,.86.34,1.29,1,1.29a2.87,2.87,0,0,0,1-.14l.23,1.4a6.05,6.05,0,0,1-1.8.3,2,2,0,0,1-2.2-1.8A7.9,7.9,0,0,1,56,55.66a4.08,4.08,0,0,1-3.13-1,4.7,4.7,0,0,1-.91-3.17V43.36l-1.63-.19V42H53c.53,0,.79.24.79.72v8.8a3.38,3.38,0,0,0,.53,2.12,2.18,2.18,0,0,0,1.81.66,7,7,0,0,0,4.44-1.82V43.36l-1.4-.19V42H61.7A.63.63,0,0,1,62.4,42.68Z" transform="translate(-20.8 -16.63)"/><path class="cls-1" d="M76.6,42h1.84v1.21l-1.14.19-4.12,12h-2L66.05,42H67.9l4.25,11.48,3.58-10.88A.84.84,0,0,1,76.6,42Z" transform="translate(-20.8 -16.63)"/><path class="cls-1" d="M88.29,53v-.33a5,5,0,0,1-4.77,3,3.33,3.33,0,0,1-2.5-1,3.55,3.55,0,0,1-.94-2.62A3.75,3.75,0,0,1,82,48.67c1.25-.76,3.36-1.15,6.34-1.15v-1a4,4,0,0,0-.72-2.76A3.17,3.17,0,0,0,85.22,43a7.6,7.6,0,0,0-3.64,1.13L81,42.75a10.84,10.84,0,0,1,4.59-1.12q3.39,0,4.23,2.38a7.26,7.26,0,0,1,.35,2.39v6.41c0,.86.33,1.29,1,1.29a5.09,5.09,0,0,0,1-.14l.21,1.4a5.68,5.68,0,0,1-1.78.3Q88.29,55.66,88.29,53Zm0-4.3q-6.45,0-6.45,3.22a2.06,2.06,0,0,0,2.26,2.27A3.8,3.8,0,0,0,87,52.86,5.82,5.82,0,0,0,88.29,49Z" transform="translate(-20.8 -16.63)"/><path class="cls-1" d="M100.15,41.63a5.65,5.65,0,0,1,1.94.33h3.7v1.28H104A5.21,5.21,0,0,1,105,46.66,4.47,4.47,0,0,1,103.79,50a5,5,0,0,1-3.64,1.23,5.35,5.35,0,0,1-2.45-.54l-1.24,1.26a1.58,1.58,0,0,0-.54,1.1c0,.52.33.78,1,.78H102a4.48,4.48,0,0,1,2.83.87,2.89,2.89,0,0,1,1.12,2.4A3.26,3.26,0,0,1,104.44,60a7.61,7.61,0,0,1-4.25,1,9.4,9.4,0,0,1-4.35-.83,2.77,2.77,0,0,1-1.61-2.63,3.31,3.31,0,0,1,.33-1.38A3,3,0,0,1,95.43,55a1.62,1.62,0,0,1-1.2-1.6A3.45,3.45,0,0,1,95.5,51l1.12-1.08a4.69,4.69,0,0,1-1.36-3.56,4.72,4.72,0,0,1,1.25-3.5A5,5,0,0,1,100.15,41.63Zm1.73,13.59H96.81A3.26,3.26,0,0,0,96,57.34,1.85,1.85,0,0,0,97.11,59a6.4,6.4,0,0,0,3,.6q4.17,0,4.17-2.57a1.61,1.61,0,0,0-.64-1.38A2.84,2.84,0,0,0,101.88,55.22Zm1.43-8.73a3.75,3.75,0,0,0-.85-2.58,3.4,3.4,0,0,0-4.65-.06A3.64,3.64,0,0,0,97,46.39,3.75,3.75,0,0,0,97.87,49a3,3,0,0,0,2.35,1A2.89,2.89,0,0,0,102.5,49,3.68,3.68,0,0,0,103.31,46.49Z" transform="translate(-20.8 -16.63)"/><path class="cls-1" d="M119.17,49H110a5.85,5.85,0,0,0,1.31,4.05,3.63,3.63,0,0,0,2.82,1.15,8.43,8.43,0,0,0,3.85-1.06l.58,1.36a9.92,9.92,0,0,1-4.19,1.12,6.76,6.76,0,0,1-3-.59,4.72,4.72,0,0,1-1.86-1.61,8.24,8.24,0,0,1-1.31-4.6,9.36,9.36,0,0,1,1.26-5,4.53,4.53,0,0,1,1.79-1.62,5.73,5.73,0,0,1,2.66-.58,4.8,4.8,0,0,1,3.91,1.71,6.87,6.87,0,0,1,1.42,4.56Zm-2.79-4.71a3.11,3.11,0,0,0-2.68-1.27,3,3,0,0,0-2.65,1.33,7,7,0,0,0-1,3.34h7.32A5.57,5.57,0,0,0,116.38,44.33Z" transform="translate(-20.8 -16.63)"/><path class="cls-1" d="M130.26,43.92a7.88,7.88,0,0,0-3.35-.86,4,4,0,0,0-2.26.53,1.75,1.75,0,0,0-.73,1.49,2,2,0,0,0,.75,1.57,6.48,6.48,0,0,0,1.82,1c.72.28,1.43.57,2.14.89a5,5,0,0,1,1.81,1.33,3.43,3.43,0,0,1-.5,4.79,6.14,6.14,0,0,1-6.64,0,4.79,4.79,0,0,1-1.7-2.82l1.62-.37q.81,2.81,3.27,2.8a3.4,3.4,0,0,0,2.13-.58,1.88,1.88,0,0,0,.75-1.56,2,2,0,0,0-.75-1.58,6.93,6.93,0,0,0-1.83-1c-.71-.29-1.43-.58-2.15-.89a5,5,0,0,1-1.82-1.36,3.22,3.22,0,0,1-.75-2.15,3,3,0,0,1,1.26-2.59,5.52,5.52,0,0,1,3.31-.92,10.51,10.51,0,0,1,4.2.93Z" transform="translate(-20.8 -16.63)"/><path class="cls-1" d="M22.13,68.88v6c0,.35.14.53.41.53a1.93,1.93,0,0,0,.4-.06l.08.57a2.34,2.34,0,0,1-.73.13c-.61,0-.91-.36-.91-1.08V69.16l-.58-.08v-.49h1A.25.25,0,0,1,22.13,68.88Z" transform="translate(-20.8 -16.63)"/><path class="cls-1" d="M25.21,69.09a2.3,2.3,0,0,1-1.1,1.81l-.23-.28a1,1,0,0,0,.4-1.17,1.3,1.3,0,0,1-.05-.37.42.42,0,0,1,.13-.31.46.46,0,0,1,.36-.15.46.46,0,0,1,.49.47Z" transform="translate(-20.8 -16.63)"/><path class="cls-1" d="M38.75,70.16a7.77,7.77,0,0,1,1.49-5.08,5.15,5.15,0,0,1,4.21-1.8,5.37,5.37,0,0,1,4.34,1.93,7.88,7.88,0,0,1,1.61,5.21,7.74,7.74,0,0,1-1.5,5.09,5.17,5.17,0,0,1-4.22,1.8,5.34,5.34,0,0,1-4.33-1.93A8,8,0,0,1,38.75,70.16Zm9.8.24a7,7,0,0,0-1.1-4.17,3.46,3.46,0,0,0-3-1.53,3.36,3.36,0,0,0-2.89,1.43,7,7,0,0,0-1,4.05,7,7,0,0,0,1.11,4.16,3.47,3.47,0,0,0,3,1.54,3.32,3.32,0,0,0,2.87-1.42A6.84,6.84,0,0,0,48.55,70.4Z" transform="translate(-20.8 -16.63)"/><path class="cls-1" d="M63.52,74.67V67.46A3.33,3.33,0,0,0,63,65.35a2.23,2.23,0,0,0-1.82-.65,6.76,6.76,0,0,0-4.32,1.73V75.6l1.63.17V77H53.37V75.77L55,75.6V65l-1.64-.19V63.6h2.48a.64.64,0,0,1,.73.71v.91a7.92,7.92,0,0,1,5-1.94,3.7,3.7,0,0,1,2.92,1,4.61,4.61,0,0,1,.91,3.15v7c0,.85.34,1.28,1,1.28a3.78,3.78,0,0,0,1-.14L67.57,77a5.76,5.76,0,0,1-1.8.3Q63.52,77.31,63.52,74.67Z" transform="translate(-20.8 -16.63)"/><path class="cls-1" d="M80.2,74.67V67.46a3.26,3.26,0,0,0-.53-2.11,2.21,2.21,0,0,0-1.81-.65,6.76,6.76,0,0,0-4.32,1.73V75.6l1.63.17V77H70.05V75.77l1.64-.17V65l-1.64-.19V63.6h2.48a.63.63,0,0,1,.72.71v.91a7.94,7.94,0,0,1,5-1.94,3.73,3.73,0,0,1,2.93,1,4.61,4.61,0,0,1,.91,3.15v7c0,.85.33,1.28,1,1.28a3.84,3.84,0,0,0,1-.14L84.25,77a5.76,5.76,0,0,1-1.8.3Q80.2,77.31,80.2,74.67Z" transform="translate(-20.8 -16.63)"/><path class="cls-1" d="M97.68,70.69H88.46a5.85,5.85,0,0,0,1.31,4,3.6,3.6,0,0,0,2.82,1.14,8.57,8.57,0,0,0,3.85-1L97,76.19a9.93,9.93,0,0,1-4.2,1.12,6.68,6.68,0,0,1-3-.6,4.84,4.84,0,0,1-1.86-1.6,8.34,8.34,0,0,1-1.31-4.61,9.41,9.41,0,0,1,1.27-5,4.51,4.51,0,0,1,1.79-1.61,5.69,5.69,0,0,1,2.65-.58A4.83,4.83,0,0,1,96.26,65a7,7,0,0,1,1.42,4.56ZM94.89,66A3.13,3.13,0,0,0,92.2,64.7,3,3,0,0,0,89.56,66a6.94,6.94,0,0,0-1,3.34h7.32A5.57,5.57,0,0,0,94.89,66Z" transform="translate(-20.8 -16.63)"/></svg>