<svg id="svg2" xmlns="http://www.w3.org/2000/svg" viewBox="0 0 339.51 599.01"><defs><style>.cls-1{fill:#ba730d;}</style></defs><title>abeilles-cueva-arana</title><path class="cls-1" d="M71.9,65.17c3.3,1.5,5.7,4.39,8.9,6,2.2,1.1,4.4,2.6,4.9,5.1-.3,3.69-3.8,7-2.7,11C85.8,98,87.4,109,91.2,119.37c1.1,3.69,1.6,7.4,2.7,11,2.3,7.8,2.5,16.5,8,23,1.3,5.4.4,12.19,5.9,15.59,2.9-1.5,3.5-4.79,4-7.69.6-3.81,1.3-8-.6-11.6-2.7-5.71-4.4-11.8-6.2-17.9-3.5-11.9-4.3-24.4-7.7-36.31A18.05,18.05,0,0,1,97,84.67c3.3-1.11,6.7-2.4,8.4-5.71a30.93,30.93,0,0,1,1-6.69c5.3,1.19,10.7,3.19,14.7,7,2.8,2.6,6.7,2.9,10.2,3.79,10.1,3.5,18.8,9.81,28.4,14.21,5.9,5.6,13.5,8.6,20.4,12.69,2.4,1.31,5.3,1.6,8,1.81.5-1.81,2.2-3.81.7-5.5-1.6-2.5-4.7-3.21-7.1-4.71-2.2-1.19-3.2-3.69-5.3-4.89-2.9-1.8-6-3.61-9.5-3.8-6.2-.2-11.6-3.81-16.6-7.1a133.38,133.38,0,0,0-12.1-6c-5.6-2.31-9.6-7.21-15.4-9.31-7.5-2.9-14-7.79-21.4-10.9-2.2-1.1-3.4-3.19-4.9-5-6.6-7.1-14.7-12.89-20.4-20.79-2.5-3.21-6.1-5.21-9.1-7.71-4-3-7.4-6.69-11.1-10s-6.7-7.29-11.1-9.6a97.52,97.52,0,0,0-13.1-6C26.8.06,21.9.37,16.9.27c-2.5-.1-3.1,3-2.7,5,.8,2.6,3.8,3.4,6.1,4.4,5,1.7,9.4,4.7,13.7,7.7,3.7,2.09,7.4,4.4,11.1,6.8,8.5,6.39,15.6,14.29,24,20.89,2.2,1.81,4.9,3.9,4.6,7.21C62.6,47.77,53.4,40,43.1,34c-5.3-3.5-11.2-5.9-16.4-9.59C19.5,20.77,12.8,16,5.4,12.77c-3.3-.9-6,2.5-4.9,5.6,1.6,2.19,2.6,4.8,4.9,6.4C11.2,29.17,18,32,24,36.17a156.35,156.35,0,0,1,16.9,11C51.1,53.56,61.3,59.77,71.9,65.17Z" transform="translate(-0.25 -0.25)"/><path class="cls-1" d="M166.48,118.56c6.34,2.69,17.76,15.45,25,10-2.13-11.21-31.34-21.11-40.15-25.55C139.11,96.85,125.21,82.65,112,80.67c3.61,24.07,3.27,48.91,5,73.66.4,5.83-.76,35,8.53,27.08,6.15-5.26,8.15-21.92.62-26.95,1.4-5.93-.34-14.85-1.94-20.65s1.07-12.4.2-18.48c-1.63-11.45,3.09-21.07,13.67-11.26,4.76,4.41,1.49,31.41,1.6,38.57.11,7.69,1.13,15.3,1.39,23,.17,5-2.39,15,.38,19.43,19.39-2.87,6.12-51.06,9.4-63.89C153.85,108.55,156.34,114.25,166.48,118.56Z" transform="translate(-0.25 -0.25)"/><path class="cls-1" d="M196.9,116.56c3.7,2.21,8.1,1.71,11.8,3.71a33.2,33.2,0,0,0,10.3-1.9c1-.31,1.1-1.6,1.5-2.5l-2.1-2.1c-3.5-1.21-7.2.19-10.7-1.1-3.9-.9-7.7-2.5-11.7-2.71-1.5-.19-2,1.31-2.8,2.21C194.3,113.77,195,115.77,196.9,116.56Z" transform="translate(-0.25 -0.25)"/><path class="cls-1" d="M144.3,201.07c-15.16-11.64-33.3-19.7-52.5-16.4-9.31-.84-16,5.29-23.5,9.29-2,2.88-12.6,19.55-6.4,22.31,8.87-4.53,13.19-12.55,23.55-15.44,8.43-2.35,16.48-2.57,24.58.79,15.18,6.28,26.49,9.68,27.47,27.25,5.21,13.22,17-5.62,17.8-11.41C152.83,210.22,150.53,205.85,144.3,201.07Z" transform="translate(-0.25 -0.25)"/><path class="cls-1" d="M255.3,378.26c-.4-8-.1-16.1.1-24.1.1-1.79-.5-4.4-2.7-4.5-3.9-.9-7.8-.69-11.8-.69-.6-7.1,3.8-13.71,2.5-20.91-.6-2.9-.8-6.19-2.8-8.59-3.1-2.91-7.6-4-11.8-3.91-5.7.6-11.2,2.5-16.6,4.41-1.1,5.19,3.9,8.79,3.8,13.79.2,5.3,2.1,10.3,2.5,15.61-3.9-12.71-7.2-25.5-10.6-38.31-1.3-4.5-.1-9.3-1.2-13.89-2-8.4-1.6-17.21-3-25.71a103.18,103.18,0,0,1-.7-11.09c-.1-2.41-1.9-4.1-2.7-6.2-.4-2.9-.2-5.71-.5-8.5-.8-3.8,3-6.61,2.5-10.4-.9-5.4-5.4-9-8.3-13.4-1.2-2.91-1-6.31-2.6-9.1a15.35,15.35,0,0,0-14.4-7.9c-6.1,1.69-8.8,8.69-8.3,14.5.3,4.3,4.4,6.69,6.8,9.9-.5,5-2.9,9.5-5.3,13.69-5.6-3.29-12.2-3.4-18.3-5.09-4.4-1.31-9-1.6-13.2-3.41-3.8-2.19-4.3-7-6.9-10.19-2.8-3.5-5.6-7.21-9.4-9.71-3.9-2.69-8.5-3.89-13-5.29-5.5-1.6-11.6-2.71-16.9-.21a25.87,25.87,0,0,0-10.5,9.4c-2.4,5.5-4.3,11.6-3.2,17.6,4,9.61,14,15.5,24,16.4a97.23,97.23,0,0,0,25.9-1.5c3.2-.59,5.5-3,8-4.9a16.77,16.77,0,0,1,12.2,1.9c1.4,1.81.9,4.21.9,6.31-.2,3.29-.1,6.69-.9,9.9-9,23.5-12.3,48.49-15.4,73.2-.5,9.29-1.6,18.6-2.5,27.89-1.7,5.71-2.5,11.61-5,16.9-3.1,8.81-6.6,17.5-9.5,26.31-.3,3.69,1.5,7.09,2.2,10.69,1.1,5.71,3.2,11.31,2.9,17.21-1,5.69-5.1,11-3.4,17,.6,2.69-.2,5.29-.5,7.89.3,4.71,2,9.5.7,14.21-1.7,7.19-1.1,14.59-2.1,21.79-.4,5.11.5,10.21-.7,15.21-3.3,14.4-5.9,29-6.4,43.79-.6,4.3-1.9,8.61-1.7,13a75.4,75.4,0,0,1-1.8,17.11c-1,4.19-3.1,8.6-1.3,12.89h7c3.4-5.79,3.3-12.6,4.3-19,.6-5.7,2.5-11.29,1.6-17-.6-3.7.4-7.29.8-10.89a88.2,88.2,0,0,1,1.7-19.9c1-3.6.1-7.41,1-10.91.8-5.59,3.5-10.69,4.6-16.19,1-3.61.8-7.4,1.5-11.11.7-4.7,2.1-9.29,2.5-14,.3-5.2-2.1-10-3.1-15.1-.6-8.19.5-16.79,4.2-24.29a7.48,7.48,0,0,1,3.3-3.71,5.61,5.61,0,0,1,1.9,2.1c3,6.21,4.8,12.9,8.3,18.8,3.4,4.6,8.2,8.5,9.9,14.2,2.2,6.8,5.5,13.21,10.6,18.3,1,1.41,2.8,1.1,4.3.91,2.3-2.5,1.1-6.41-.4-9.1-3.8-6.4-6.6-13.5-10.5-19.9-.6-.31-1.7-.91-2.2-1.21-.3-.89-.5-1.89-.8-2.79a23.18,23.18,0,0,1,5.6,6.9c2.7,5.19,7.1,9.1,10.4,13.89,1.7,2.3,4.5,3.21,7.2,3.61.7-.81,1.4-1.5,2-2.31a13.23,13.23,0,0,0-3.5-9.19c-3.9-4.9-7.8-9.9-12.2-14.5-3.3-3.31-4.4-8.21-7.6-11.61-3-3.89-7.5-5.89-11.9-7.79a92,92,0,0,1,9-13.1c4.3-5.71,8.3-11.61,13.5-16.5,4.1-5.81,8.4-11.5,14-16.11,5.3-4.39,12.7-5.39,17.4-10.7,2.1-4.59,1.2-9.9,1-14.69-.6-11.4-4.3-22.21-6.5-33.21-2-7-4.9-13.69-6.3-20.79.8-3.81,3.3-7.11,3-11.11-.2-6.2,2-12.09,4.2-17.8,1.1-2.4.6-5.29,2.1-7.5.6,5-.7,10.31,1,15.21,1.8,6.2,1.9,12.89,4.7,18.8.4,1.29,1.4,2.59,1.2,4-.9,3.79-.1,7.79.5,11.59a212.56,212.56,0,0,0,7.7,22.91c1.9,3.7.73,7.93.95,11.95a2.13,2.13,0,0,0,.58,1.39c1.82,2.56,4.69,3.71,7.47,4.85-.1,9-.8,18,1.3,26.81a11.77,11.77,0,0,0,8.1,9.69c7.2,2.81,15.1-.5,21.1-4.79C255,392.66,255.2,385.06,255.3,378.26Zm-97.4,3.9c-2.6,5.9-7.8,10-10.6,15.71-2.2,4.29-5,8.29-7.3,12.5a14.73,14.73,0,0,1-6,5.89,22.86,22.86,0,0,0,1.2-11c1.5-2.29,2.9-4.7,5.2-6.39,5.3-4.11,8.6-10.21,12.2-15.81,1.9-4,6.7-5.09,9.2-8.59C160.6,377.16,159,379.56,157.9,382.16Zm8.3-49c-.7,4-4.8,5.6-7.4,8.31-5.9,6.29-10.8,13.5-15.6,20.69.4-5.29-.9-10.6.2-15.9,1.1-5-2.6-10.29.8-15,.8-4-.4-8.29,1.5-12.1,2-4.1,1.9-9,3.9-13.1,3.5-13,11.8-24.39,13.9-37.79,1.1,5.6-.9,11.4.5,17.1,2.7,10.09.7,20.69,2,30.89C166,322,167.1,327.56,166.2,333.16Zm66.2,6.5c-1.4,4.31-.9,8.9-1.3,13.4l-1,.1c-1.3-4.69-2.9-9.29-5.9-13.19-.7-4.81-1.9-9.71-2.2-14.5a34.19,34.19,0,0,1,6.8-2.5c1.4.19,2.5,1,3.8,1.5C233.8,329.37,234.1,334.76,232.4,339.66Z" transform="translate(-0.25 -0.25)"/><path class="cls-1" d="M79.9,264.37c1-1.41,2.9-2.81,1.8-4.7-5.7.2-11.3-1.11-16.9-1.61a40.13,40.13,0,0,1-14-3.69c-4.2-1.6-7.6-4.81-11.9-6.2.1,5.2,4.3,9.1,8.9,11.1C57.8,263.46,69,266.17,79.9,264.37Z" transform="translate(-0.25 -0.25)"/><path class="cls-1" d="M133.3,273.56c2.8-1.19,5-3.5,7.5-5.19,2.1-1.5,4.4-3.41,4.5-6.2a39.53,39.53,0,0,1,.9-8.5A74.43,74.43,0,0,1,126.4,265c-.2,3.1-.2,6.31,1.5,9A44.59,44.59,0,0,0,133.3,273.56Z" transform="translate(-0.25 -0.25)"/><path class="cls-1" d="M107.8,279.37c-.31-8.4-19.87-5.58-25.65-7.12-7.8-2.08-17.55-6.72-25.65-6.58C56.5,279.28,98.65,281,107.8,279.37Z" transform="translate(-0.25 -0.25)"/><path class="cls-1" d="M106.7,505.37a153.33,153.33,0,0,1,2-20.31c.7-4.69,3.9-8.8,3.5-13.8-.1-4.79,2-9.29,2.1-14.1.2-4.29,1.6-8.6,1.2-13,.5-10.4-8-19.29-6-29.9,1.2-6.1,2.5-12.29,5.4-17.89,1.2-11.71,7.2-22.31,9.1-33.9,2.9-10,2.8-20.6,4.8-30.81.4-8.1,3.4-16.4,1-24.5-.7-9.2-1-18.39-2.4-27.49-2.1-2-3.5-4.61-5.2-6.9-2.5-1.81-5.6-2.4-8.4-3.6a35.48,35.48,0,0,1,.6,8c4.6,2.1,5.9,7.5,5.7,12.1.7,10.7-1.6,21.29-1,32.1.4,10.29-1.3,20.6-1,31,.2,4.1-3,7.39-3.7,11.29a48.17,48.17,0,0,1-2.6,10.6c-1.7,4.71-2,9.9-3.8,14.61-1.1,3-.4,6.19-1,9.29s-2.6,5.9-3.3,9c-1.4,7.31-3.4,14.71-2,22.1,1.3,6.11,3.6,12,5.6,18a68,68,0,0,1,.6,9c-.1,8.4-5.7,15.61-5.9,24-.2,3.21-2,6-2.6,9.11-.6,4,.4,8,.6,11.89-.5,4.11-3.1,7.71-2.8,11.9a37.89,37.89,0,0,1-1.5,13.4c-2.8,9-1.7,18.5-2.7,27.7-.8,9.21-1.7,18.5-2.7,27.8a142.89,142.89,0,0,0-3.8,17.2h9.4c3.3-19.1,3.6-38.6,5.1-58-.7-6.79,2.2-13.2,2.7-20C104.2,515.87,106.7,510.87,106.7,505.37Z" transform="translate(-0.25 -0.25)"/><path class="cls-1" d="M301.5,283.87c-.3.19-.6.5-1,.8-1.4-1.71-3.6.2-5.3.39,0,1-.1,2-.2,3.11,2.2-.11,4.4-.21,6.7-.3-2.8,1.09-5.6,2.09-8.5,3,0,.9-.1,1.9-.1,2.8,6.9.6,13-3.9,20-3.71,3.3,5.5,10.2,4.81,15.7,5.5,1.7.41,3.1-.9,4.4-1.69.2-1.71.8-3.4,0-4.9-.8-2.31-3.5-2.6-5.4-3.7a12,12,0,0,0,6.8-2.71c-.4-.69-1.1-2-1.5-2.69-4.1-.5-7.7,2-11.7,2.19,3.6-4.09,8.8-7.29,14.5-7.5,2.2.21,1.6-2.09,1.4-3.5-6.2-1.29-12,1.5-17.3,4.31-3.7,2.29-8.1-2.31-11.7.79l.3,4.21c-3.6-.9-6.5-3.31-9.8-4.6a5.93,5.93,0,0,0-7.5,2.39l1.5,3.31C295.7,282.27,298.6,283.06,301.5,283.87Z" transform="translate(-0.25 -0.25)"/><path class="cls-1" d="M238,299.66c-3.2,1.21-9.1,1.5-8.9,6.1,3.9.61,7.9-1.5,11.7-.39,3.1-2.21,7.3-1.61,11-1.71,4.9-.1,10,2.4,14.7,0-.3-1.1.4-2.6-.7-3.39A43.72,43.72,0,0,0,251.1,298c.2-.5.5-1.4.7-1.9,6.5-.29,13.1-.39,19.6-1.39,2.9-.11,2-4.8-.6-4.61-4.2-.29-8.4,1-12.7.61a2,2,0,0,0,.1-.71c3.7-1.29,9.3-.5,11.3-4.69-1.4-1.1-2.6-3-4.7-2.6-4.6-.4-7.9,3.5-12,4.89-6.9,1.9-14.5-1.5-21.2,1.5.4,3.21,3.5,4,6.1,4.71-.3.19-.9.69-1.2.9-3.4,0-6.9-.4-10.3.29a34.48,34.48,0,0,0,1.6,3.41A57.15,57.15,0,0,0,238,299.66Z" transform="translate(-0.25 -0.25)"/><path class="cls-1" d="M309.9,291.67c-3,.89-6.7.39-9.3,2.6,3.3,3.5,8.8,2.4,12.6.29C314.2,292.67,311.7,290.77,309.9,291.67Z" transform="translate(-0.25 -0.25)"/><path class="cls-1" d="M94.3,493.37c2.22-11.78,6.78-27.26,5.73-39.15-2.75-31,4.18-61.45,7.23-92.29a26.37,26.37,0,0,0,.14-10.87,11.28,11.28,0,0,0,2.2-6.8c.48-5.48-3.95-7.32-2.45-13.47,1.41-5.83,6.12-23-2-25.42-4,3.81-8.37,10.26-11.2,14.89,4.09,5.36,4.46,8.71,3.64,15.7-1.52,13-.82,24.76-.52,37.85.18,7.54-4.74,14.08-3.78,21.31.46,3.48-.24,11.18-2.24,14.14-6.45,8.94-1.76,30.05-.9,40.11,3.9,27.92-6.49,55.6-11.63,82.94-2.49,13.22-5.35,26.4-7.71,39.62-1.16,6.51-.64,13.25-2.56,19.63,3.73,4.4,8.72,5.86,11.46-.42s2.59-16.27,2.84-23.08a6.34,6.34,0,0,1,2.6-3.69q.17-4.73.21-9.44c0-12.11,3.92-22.8,4.19-34.77C94.07,513.45,93.3,502.11,94.3,493.37Z" transform="translate(-0.25 -0.25)"/><path class="cls-1" d="M338,367.06c-3.5.41-6.8,1.81-10.2,2.2-2.7,0-5.4-.5-8,.21-2.7.4-6.2,1.69-8-1.1,5-5.31,12.3-8.31,19.5-8.9,0-.41.1-1.31.1-1.81-4.4-2-9.6-.9-14.2.21-5,1.19-8.9,4.79-12.5,8.39-1.5,1.71-2.1,4.61-4.8,4.8-3.2,1.81-7.3-1.9-10.1,1.1-2.1,2.9-1.9,6.9-1.1,10.21.7,2.19,3.2,2.5,5,3.29.8-.29,1.5-.6,2.2-.9,1.2,2.61,2.3,7.21,6.1,6.4,1.5-2.9-1.8-6.29,0-9.29,2.7,1.5,5.7.69,8.1-1.11.9,2.5,2.3,5.8,5.7,5,.5-1.6-.1-4,1.2-5.29,3.6,0,7.4.4,10.5-1.81,4.6-.69,9.1-3,11.6-7C340.2,370.26,340,367.47,338,367.06Z" transform="translate(-0.25 -0.25)"/><path class="cls-1" d="M211.4,413.47c-2.6-5.21-4.7-10.71-6.9-16.1-.5-1.81-2.8-3.5-4.1-1.4-1.7,6,2.7,11.19,4,16.69-1.3-.29-2.6-.6-3.9-1-2.2-3.79-4.1-7.9-7.5-10.9a26.14,26.14,0,0,1-3.1,1c-.8,1.3-2.1,2.71-1.6,4.4,1.9,5.71,8.9,8.4,9.5,14.71a43.5,43.5,0,0,0-10-2.9c-2-.31-5.1.79-4.2,3.29,1.6,1.71,3.9,2.4,6.1,2.9a37.64,37.64,0,0,1,10.8,4.21c2.4,3.6,2.1,8.19,4.3,11.89,1.5,1.9,4.5.3,5.5-1.39a16.94,16.94,0,0,0,.1-5.5c3.6,1.6,5.9,6.39,10.3,5.6,2.3-.21,5.6-1.91,4.2-4.71C222.4,426.26,216.9,419.56,211.4,413.47Z" transform="translate(-0.25 -0.25)"/><path class="cls-1" d="M290.9,550c2.9-.31,6.5.69,8.8-1.71-.7-5-4.7-8.39-8.6-11.1-5.8-4-11.6-8.1-17.7-11.5-2.9-1.5-4.2-4.5-6.4-6.5a28.25,28.25,0,0,0-16.3-5.1c-3.1.31-5.1,3.2-5.1,6.2a41.63,41.63,0,0,0,8.7,13.61c1.1,1.39,3.1,3,2,5-1.7-.21-3-1.61-4.4-2.61a16.21,16.21,0,0,0-10.2-3.1c-3.4,1.21-5.5,5.71-3.9,9.1.9,2.71,3.5,4.4,6.1,5.4,5.7,2,11,5.21,16.3,8,5.8,3.5,11,7.9,16.7,11.6,2.5,1.71,6.1,2.61,8.9.9,1.2-1.9,1.4-4.29,2-6.5,2.1.71,5,2,6.6-.29.2-3.61-2.8-6.21-4.9-8.61C288.2,551.66,289.5,549.87,290.9,550Z" transform="translate(-0.25 -0.25)"/></svg>